<svg xmlns="http://www.w3.org/2000/svg" width="32.018" height="32.014" viewBox="0 0 32.018 32.014">
  <g id="Group_6903" data-name="Group 6903" transform="translate(0)">
    <path id="Path_3486" data-name="Path 3486" d="M1975.485,151.288a.515.515,0,0,1,0-.729.5.5,0,0,1,.726-.044,6.2,6.2,0,0,1,.592.591.492.492,0,0,1,.069.579.565.565,0,0,1-.457.3.584.584,0,0,1-.385-.151c-.188-.178-.377-.356-.548-.55" transform="translate(-1966.241 -147.188)" fill="#fff"/>
    <path id="Path_3487" data-name="Path 3487" d="M1984.7,201.455c.188.179.376.357.549.55a.536.536,0,0,1-.011.756.517.517,0,0,1-.73.009c-.2-.179-.387-.375-.57-.573a.5.5,0,0,1-.077-.58.548.548,0,0,1,.475-.31.59.59,0,0,1,.364.147" transform="translate(-1974.18 -194.922)" fill="#fff"/>
    <path id="Path_3488" data-name="Path 3488" d="M2018.065,176.927a.5.5,0,0,1-.067-.581.542.542,0,0,1,.548-.3.417.417,0,0,1,.27.126c.2.185.4.369.572.572a.532.532,0,0,1-.751.751,6.593,6.593,0,0,1-.571-.572" transform="translate(-2006.172 -171.247)" fill="#fff"/>
    <path id="Path_3489" data-name="Path 3489" d="M2043.5,143.026a.492.492,0,0,1-.094-.577.5.5,0,0,1,.507-.308.44.44,0,0,1,.331.127c.194.189.394.371.573.572a.519.519,0,0,1-.01.732.531.531,0,0,1-.757.006c-.192-.174-.375-.36-.551-.552" transform="translate(-2029.993 -139.462)" fill="#fff"/>
    <path id="Path_3490" data-name="Path 3490" d="M2052.72,210.093c.2.193.409.384.59.595a.531.531,0,0,1-.757.74,6.322,6.322,0,0,1-.591-.594.5.5,0,0,1-.059-.58.529.529,0,0,1,.53-.29.411.411,0,0,1,.287.128" transform="translate(-2037.948 -203.035)" fill="#fff"/>
    <path id="Path_3491" data-name="Path 3491" d="M1853.652,104.228q-2.028-.006-4.056,0c-.419,0-.653.206-.643.547s.241.52.642.522c.676,0,1.352,0,2.028,0s1.352,0,2.028,0c.391,0,.627-.207.628-.536s-.221-.531-.626-.532m0,0q-2.028-.006-4.056,0c-.419,0-.653.206-.643.547s.241.52.642.522c.676,0,1.352,0,2.028,0s1.352,0,2.028,0c.391,0,.627-.207.628-.536s-.221-.531-.626-.532m0,0q-2.028-.006-4.056,0c-.419,0-.653.206-.643.547s.241.52.642.522c.676,0,1.352,0,2.028,0s1.352,0,2.028,0c.391,0,.627-.207.628-.536s-.221-.531-.626-.532m0,0q-2.028-.006-4.056,0c-.419,0-.653.206-.643.547s.241.52.642.522c.676,0,1.352,0,2.028,0s1.352,0,2.028,0c.391,0,.627-.207.628-.536s-.221-.531-.626-.532m0,0q-2.028-.006-4.056,0c-.419,0-.653.206-.643.547s.241.52.642.522c.676,0,1.352,0,2.028,0s1.352,0,2.028,0c.391,0,.627-.207.628-.536s-.221-.531-.626-.532m0,0q-2.028-.006-4.056,0c-.419,0-.653.206-.643.547s.241.52.642.522c.676,0,1.352,0,2.028,0s1.352,0,2.028,0c.391,0,.627-.207.628-.536s-.221-.531-.626-.532m0,0q-2.028-.006-4.056,0c-.419,0-.653.206-.643.547s.241.52.642.522c.676,0,1.352,0,2.028,0s1.352,0,2.028,0c.391,0,.627-.207.628-.536s-.221-.531-.626-.532m0,0q-2.028-.006-4.056,0c-.419,0-.653.206-.643.547s.241.52.642.522c.676,0,1.352,0,2.028,0s1.352,0,2.028,0c.391,0,.627-.207.628-.536s-.221-.531-.626-.532m0,0q-2.028-.006-4.056,0c-.419,0-.653.206-.643.547s.241.52.642.522c.676,0,1.352,0,2.028,0s1.352,0,2.028,0c.391,0,.627-.207.628-.536s-.221-.531-.626-.532m0,0q-2.028-.006-4.056,0c-.419,0-.653.206-.643.547s.241.52.642.522c.676,0,1.352,0,2.028,0s1.352,0,2.028,0c.391,0,.627-.207.628-.536s-.221-.531-.626-.532m0,0q-2.028-.006-4.056,0c-.419,0-.653.206-.643.547s.241.52.642.522c.676,0,1.352,0,2.028,0s1.352,0,2.028,0c.391,0,.627-.207.628-.536s-.221-.531-.626-.532m0,0q-2.028-.006-4.056,0c-.419,0-.653.206-.643.547s.241.52.642.522c.676,0,1.352,0,2.028,0s1.352,0,2.028,0c.391,0,.627-.207.628-.536s-.221-.531-.626-.532m0,0q-2.028-.006-4.056,0c-.419,0-.653.206-.643.547s.241.52.642.522c.676,0,1.352,0,2.028,0s1.352,0,2.028,0c.391,0,.627-.207.628-.536s-.221-.531-.626-.532m0,0q-2.028-.006-4.056,0c-.419,0-.653.206-.643.547s.241.52.642.522c.676,0,1.352,0,2.028,0s1.352,0,2.028,0c.391,0,.627-.207.628-.536s-.221-.531-.626-.532m0,0q-2.028-.006-4.056,0c-.419,0-.653.206-.643.547s.241.52.642.522c.676,0,1.352,0,2.028,0s1.352,0,2.028,0c.391,0,.627-.207.628-.536s-.221-.531-.626-.532m0,0q-2.028-.006-4.056,0c-.419,0-.653.206-.643.547s.241.52.642.522c.676,0,1.352,0,2.028,0s1.352,0,2.028,0c.391,0,.627-.207.628-.536s-.221-.531-.626-.532m0,0q-2.028-.006-4.056,0c-.419,0-.653.206-.643.547s.241.52.642.522c.676,0,1.352,0,2.028,0s1.352,0,2.028,0c.391,0,.627-.207.628-.536s-.221-.531-.626-.532m0,0q-2.028-.006-4.056,0c-.419,0-.653.206-.643.547s.241.52.642.522c.676,0,1.352,0,2.028,0s1.352,0,2.028,0c.391,0,.627-.207.628-.536s-.221-.531-.626-.532m-7.529,13.318h-10.838c-.864,0-1.262.394-1.262,1.254q0,3.279,0,6.558c0,.868.389,1.253,1.26,1.253q2.7,0,5.4,0,2.718,0,5.435,0a1.072,1.072,0,0,0,1.228-1.219q0-3.311,0-6.621a1.081,1.081,0,0,0-1.225-1.226m-10.714,1.066c1.758.009,3.517.005,5.276.005s3.537,0,5.306-.005c.227,0,.3.051.3.291-.015.884-.011,1.768,0,2.653,0,.186-.042.254-.241.251q-1.092-.017-2.185,0c-.2,0-.249-.075-.242-.256a1.808,1.808,0,0,0-.326-1.238,1.6,1.6,0,0,0-2.879.9c-.023.589-.023.589-.583.589-.472,0-.472,0-.483-.535a1.606,1.606,0,0,0-1.43-1.587,1.623,1.623,0,0,0-1.726,1.227,2.52,2.52,0,0,0-.034.683c0,.166-.06.207-.218.214-.846.042-.846.046-.846-.8,0-.7.012-1.395-.006-2.091-.007-.258.083-.307.318-.306m6.077,2.857c0-.458.178-.7.52-.706s.51.238.544.711c.035.505-.328.271-.512.328-.594-.008-.549.068-.552-.333m-3.694.333c-.569,0-.569,0-.568-.34,0-.453.178-.692.52-.7s.516.243.553.708c.041.505-.318.28-.5.332m1.558,3.739c-.582-.008-.509.068-.515-.342-.006-.463.172-.707.505-.716s.54.248.534.723c-.005.407.054.326-.524.335m4.239,0c-.186-.053-.547.176-.5-.333.038-.463.2-.731.54-.726s.533.272.527.74c-.006.381.065.312-.562.32m2.7-2.378c-.019.353,0,.708,0,1.061s-.009.729,0,1.093c.006.179-.055.249-.23.223a.264.264,0,0,0-.031,0c-.249,0-.551.079-.734-.033s-.051-.44-.075-.671a1.608,1.608,0,0,0-1.627-1.422,1.591,1.591,0,0,0-1.566,1.446c-.021.221.108.557-.079.639a2.356,2.356,0,0,1-.862.039c-.126,0-.117-.09-.119-.174a4.5,4.5,0,0,0-.017-.53,1.6,1.6,0,0,0-1.719-1.419,1.621,1.621,0,0,0-1.487,1.571c-.035.554-.035.554-.589.554-.593,0-1.187-.009-1.78.005-.211,0-.288-.044-.283-.271q.022-1.046,0-2.092c-.006-.238.066-.295.3-.294,2.415.008,4.83.005,7.245.005,1.125,0,2.249.005,3.373,0,.211,0,.295.048.283.274m7.362-18.936q-2.028-.006-4.056,0c-.419,0-.653.206-.643.547s.241.52.642.522c.676,0,1.352,0,2.028,0s1.352,0,2.028,0c.391,0,.627-.207.628-.536s-.221-.531-.626-.532m-7.529,13.318h-10.838c-.864,0-1.262.394-1.262,1.254q0,3.279,0,6.558c0,.868.389,1.253,1.26,1.253q2.7,0,5.4,0,2.718,0,5.435,0a1.072,1.072,0,0,0,1.228-1.219q0-3.311,0-6.621a1.081,1.081,0,0,0-1.225-1.226m-10.714,1.066c1.758.009,3.517.005,5.276.005s3.537,0,5.306-.005c.227,0,.3.051.3.291-.015.884-.011,1.768,0,2.653,0,.186-.042.254-.241.251q-1.092-.017-2.185,0c-.2,0-.249-.075-.242-.256a1.808,1.808,0,0,0-.326-1.238,1.6,1.6,0,0,0-2.879.9c-.023.589-.023.589-.583.589-.472,0-.472,0-.483-.535a1.606,1.606,0,0,0-1.43-1.587,1.623,1.623,0,0,0-1.726,1.227,2.52,2.52,0,0,0-.034.683c0,.166-.06.207-.218.214-.846.042-.846.046-.846-.8,0-.7.012-1.395-.006-2.091-.007-.258.083-.307.318-.306m6.077,2.857c0-.458.178-.7.52-.706s.51.238.544.711c.035.505-.328.271-.512.328-.594-.008-.549.068-.552-.333m-3.694.333c-.569,0-.569,0-.568-.34,0-.453.178-.692.52-.7s.516.243.553.708c.041.505-.318.28-.5.332m1.558,3.739c-.582-.008-.509.068-.515-.342-.006-.463.172-.707.505-.716s.54.248.534.723c-.005.407.054.326-.524.335m4.239,0c-.186-.053-.547.176-.5-.333.038-.463.2-.731.54-.726s.533.272.527.74c-.006.381.065.312-.562.32m2.7-2.378c-.019.353,0,.708,0,1.061s-.009.729,0,1.093c.006.179-.055.249-.23.223a.264.264,0,0,0-.031,0c-.249,0-.551.079-.734-.033s-.051-.44-.075-.671a1.608,1.608,0,0,0-1.627-1.422,1.591,1.591,0,0,0-1.566,1.446c-.021.221.108.557-.079.639a2.356,2.356,0,0,1-.862.039c-.126,0-.117-.09-.119-.174a4.5,4.5,0,0,0-.017-.53,1.6,1.6,0,0,0-1.719-1.419,1.621,1.621,0,0,0-1.487,1.571c-.035.554-.035.554-.589.554-.593,0-1.187-.009-1.78.005-.211,0-.288-.044-.283-.271q.022-1.046,0-2.092c-.006-.238.066-.295.3-.294,2.415.008,4.83.005,7.245.005,1.125,0,2.249.005,3.373,0,.211,0,.295.048.283.274m7.362-18.936q-2.028-.006-4.056,0c-.419,0-.653.206-.643.547s.241.52.642.522c.676,0,1.352,0,2.028,0s1.352,0,2.028,0c.391,0,.627-.207.628-.536s-.221-.531-.626-.532m-7.529,13.318h-10.838c-.864,0-1.262.394-1.262,1.254q0,3.279,0,6.558c0,.868.389,1.253,1.26,1.253q2.7,0,5.4,0,2.718,0,5.435,0a1.072,1.072,0,0,0,1.228-1.219q0-3.311,0-6.621a1.081,1.081,0,0,0-1.225-1.226m-10.714,1.066c1.758.009,3.517.005,5.276.005s3.537,0,5.306-.005c.227,0,.3.051.3.291-.015.884-.011,1.768,0,2.653,0,.186-.042.254-.241.251q-1.092-.017-2.185,0c-.2,0-.249-.075-.242-.256a1.808,1.808,0,0,0-.326-1.238,1.6,1.6,0,0,0-2.879.9c-.023.589-.023.589-.583.589-.472,0-.472,0-.483-.535a1.606,1.606,0,0,0-1.43-1.587,1.623,1.623,0,0,0-1.726,1.227,2.52,2.52,0,0,0-.034.683c0,.166-.06.207-.218.214-.846.042-.846.046-.846-.8,0-.7.012-1.395-.006-2.091-.007-.258.083-.307.318-.306m6.077,2.857c0-.458.178-.7.52-.706s.51.238.544.711c.035.505-.328.271-.512.328-.594-.008-.549.068-.552-.333m-3.694.333c-.569,0-.569,0-.568-.34,0-.453.178-.692.52-.7s.516.243.553.708c.041.505-.318.28-.5.332m1.558,3.739c-.582-.008-.509.068-.515-.342-.006-.463.172-.707.505-.716s.54.248.534.723c-.005.407.054.326-.524.335m4.239,0c-.186-.053-.547.176-.5-.333.038-.463.2-.731.54-.726s.533.272.527.74c-.006.381.065.312-.562.32m2.7-2.378c-.019.353,0,.708,0,1.061s-.009.729,0,1.093c.006.179-.055.249-.23.223a.264.264,0,0,0-.031,0c-.249,0-.551.079-.734-.033s-.051-.44-.075-.671a1.608,1.608,0,0,0-1.627-1.422,1.591,1.591,0,0,0-1.566,1.446c-.021.221.108.557-.079.639a2.356,2.356,0,0,1-.862.039c-.126,0-.117-.09-.119-.174a4.5,4.5,0,0,0-.017-.53,1.6,1.6,0,0,0-1.719-1.419,1.621,1.621,0,0,0-1.487,1.571c-.035.554-.035.554-.589.554-.593,0-1.187-.009-1.78.005-.211,0-.288-.044-.283-.271q.022-1.046,0-2.092c-.006-.238.066-.295.3-.294,2.415.008,4.83.005,7.245.005,1.125,0,2.249.005,3.373,0,.211,0,.295.048.283.274m7.362-18.936q-2.028-.006-4.056,0c-.419,0-.653.206-.643.547s.241.52.642.522c.676,0,1.352,0,2.028,0s1.352,0,2.028,0c.391,0,.627-.207.628-.536s-.221-.531-.626-.532m.627,21.06c0-.426,0-.853,0-1.279a1.07,1.07,0,0,0-1.1-1.138c-.343-.011-.687-.014-1.029,0a1.051,1.051,0,0,0-1.065,1.073q-.018,1.341,0,2.682a1.018,1.018,0,0,0,1.016,1.045c.395.018.791.018,1.185,0a1.027,1.027,0,0,0,.989-1.041c.007-.447,0-.895,0-1.341m-1.293,1.323c-.833.016-.833.024-.833-.806,0-.177,0-.353,0-.53,0-.363.009-.727,0-1.089-.006-.181.06-.223.231-.228.835-.024.835-.029.835.807,0,.529-.006,1.059,0,1.588,0,.176-.027.254-.233.258m-6.863-9.065h-10.838c-.864,0-1.262.394-1.262,1.254q0,3.279,0,6.558c0,.868.389,1.253,1.26,1.253q2.7,0,5.4,0,2.718,0,5.435,0a1.072,1.072,0,0,0,1.228-1.219q0-3.311,0-6.621a1.081,1.081,0,0,0-1.225-1.226m-10.714,1.066c1.758.009,3.517.005,5.276.005s3.537,0,5.306-.005c.227,0,.3.051.3.291-.015.884-.011,1.768,0,2.653,0,.186-.042.254-.241.251q-1.092-.017-2.185,0c-.2,0-.249-.075-.242-.256a1.808,1.808,0,0,0-.326-1.238,1.6,1.6,0,0,0-2.879.9c-.023.589-.023.589-.583.589-.472,0-.472,0-.483-.535a1.606,1.606,0,0,0-1.43-1.587,1.623,1.623,0,0,0-1.726,1.227,2.52,2.52,0,0,0-.034.683c0,.166-.06.207-.218.214-.846.042-.846.046-.846-.8,0-.7.012-1.395-.006-2.091-.007-.258.083-.307.318-.306m6.077,2.857c0-.458.178-.7.52-.706s.51.238.544.711c.035.505-.328.271-.512.328-.594-.008-.549.068-.552-.333m-3.694.333c-.569,0-.569,0-.568-.34,0-.453.178-.692.52-.7s.516.243.553.708c.041.505-.318.28-.5.332m1.558,3.739c-.582-.008-.509.068-.515-.342-.006-.463.172-.707.505-.716s.54.248.534.723c-.005.407.054.326-.524.335m4.239,0c-.186-.053-.547.176-.5-.333.038-.463.2-.731.54-.726s.533.272.527.74c-.006.381.065.312-.562.32m2.7-2.378c-.019.353,0,.708,0,1.061s-.009.729,0,1.093c.006.179-.055.249-.23.223a.264.264,0,0,0-.031,0c-.249,0-.551.079-.734-.033s-.051-.44-.075-.671a1.608,1.608,0,0,0-1.627-1.422,1.591,1.591,0,0,0-1.566,1.446c-.021.221.108.557-.079.639a2.356,2.356,0,0,1-.862.039c-.126,0-.117-.09-.119-.174a4.5,4.5,0,0,0-.017-.53,1.6,1.6,0,0,0-1.719-1.419,1.621,1.621,0,0,0-1.487,1.571c-.035.554-.035.554-.589.554-.593,0-1.187-.009-1.78.005-.211,0-.288-.044-.283-.271q.022-1.046,0-2.092c-.006-.238.066-.295.3-.294,2.415.008,4.83.005,7.245.005,1.125,0,2.249.005,3.373,0,.211,0,.295.048.283.274m7.989,2.124c0-.426,0-.853,0-1.279a1.07,1.07,0,0,0-1.1-1.138c-.343-.011-.687-.014-1.029,0a1.051,1.051,0,0,0-1.065,1.073q-.018,1.341,0,2.682a1.018,1.018,0,0,0,1.016,1.045c.395.018.791.018,1.185,0a1.027,1.027,0,0,0,.989-1.041c.007-.447,0-.895,0-1.341m-1.293,1.323c-.833.016-.833.024-.833-.806,0-.177,0-.353,0-.53,0-.363.009-.727,0-1.089-.006-.181.06-.223.231-.228.835-.024.835-.029.835.807,0,.529-.006,1.059,0,1.588,0,.176-.027.254-.233.258m.666-22.383q-2.028-.006-4.056,0c-.419,0-.653.206-.643.547s.241.52.642.522c.676,0,1.352,0,2.028,0s1.352,0,2.028,0c.391,0,.627-.207.628-.536s-.221-.531-.626-.532m-7.529,13.318h-10.838c-.864,0-1.262.394-1.262,1.254q0,3.279,0,6.558c0,.868.389,1.253,1.26,1.253q2.7,0,5.4,0,2.718,0,5.435,0a1.072,1.072,0,0,0,1.228-1.219q0-3.311,0-6.621a1.081,1.081,0,0,0-1.225-1.226m-10.714,1.066c1.758.009,3.517.005,5.276.005s3.537,0,5.306-.005c.227,0,.3.051.3.291-.015.884-.011,1.768,0,2.653,0,.186-.042.254-.241.251q-1.092-.017-2.185,0c-.2,0-.249-.075-.242-.256a1.808,1.808,0,0,0-.326-1.238,1.6,1.6,0,0,0-2.879.9c-.023.589-.023.589-.583.589-.472,0-.472,0-.483-.535a1.606,1.606,0,0,0-1.43-1.587,1.623,1.623,0,0,0-1.726,1.227,2.52,2.52,0,0,0-.034.683c0,.166-.06.207-.218.214-.846.042-.846.046-.846-.8,0-.7.012-1.395-.006-2.091-.007-.258.083-.307.318-.306m6.077,2.857c0-.458.178-.7.52-.706s.51.238.544.711c.035.505-.328.271-.512.328-.594-.008-.549.068-.552-.333m-3.694.333c-.569,0-.569,0-.568-.34,0-.453.178-.692.52-.7s.516.243.553.708c.041.505-.318.28-.5.332m1.558,3.739c-.582-.008-.509.068-.515-.342-.006-.463.172-.707.505-.716s.54.248.534.723c-.005.407.054.326-.524.335m4.239,0c-.186-.053-.547.176-.5-.333.038-.463.2-.731.54-.726s.533.272.527.74c-.006.381.065.312-.562.32m2.7-2.378c-.019.353,0,.708,0,1.061s-.009.729,0,1.093c.006.179-.055.249-.23.223a.264.264,0,0,0-.031,0c-.249,0-.551.079-.734-.033s-.051-.44-.075-.671a1.608,1.608,0,0,0-1.627-1.422,1.591,1.591,0,0,0-1.566,1.446c-.021.221.108.557-.079.639a2.356,2.356,0,0,1-.862.039c-.126,0-.117-.09-.119-.174a4.5,4.5,0,0,0-.017-.53,1.6,1.6,0,0,0-1.719-1.419,1.621,1.621,0,0,0-1.487,1.571c-.035.554-.035.554-.589.554-.593,0-1.187-.009-1.78.005-.211,0-.288-.044-.283-.271q.022-1.046,0-2.092c-.006-.238.066-.295.3-.294,2.415.008,4.83.005,7.245.005,1.125,0,2.249.005,3.373,0,.211,0,.295.048.283.274m7.362-18.936q-2.028-.006-4.056,0c-.419,0-.653.206-.643.547s.241.52.642.522c.676,0,1.352,0,2.028,0s1.352,0,2.028,0c.391,0,.627-.207.628-.536s-.221-.531-.626-.532m.627,21.06c0-.426,0-.853,0-1.279a1.07,1.07,0,0,0-1.1-1.138c-.343-.011-.687-.014-1.029,0a1.051,1.051,0,0,0-1.065,1.073q-.018,1.341,0,2.682a1.018,1.018,0,0,0,1.016,1.045c.395.018.791.018,1.185,0a1.027,1.027,0,0,0,.989-1.041c.007-.447,0-.895,0-1.341m-1.293,1.323c-.833.016-.833.024-.833-.806,0-.177,0-.353,0-.53,0-.363.009-.727,0-1.089-.006-.181.06-.223.231-.228.835-.024.835-.029.835.807,0,.529-.006,1.059,0,1.588,0,.176-.027.254-.233.258m-6.863-9.065h-10.838c-.864,0-1.262.394-1.262,1.254q0,3.279,0,6.558c0,.868.389,1.253,1.26,1.253q2.7,0,5.4,0,2.718,0,5.435,0a1.072,1.072,0,0,0,1.228-1.219q0-3.311,0-6.621a1.081,1.081,0,0,0-1.225-1.226m-10.714,1.066c1.758.009,3.517.005,5.276.005s3.537,0,5.306-.005c.227,0,.3.051.3.291-.015.884-.011,1.768,0,2.653,0,.186-.042.254-.241.251q-1.092-.017-2.185,0c-.2,0-.249-.075-.242-.256a1.808,1.808,0,0,0-.326-1.238,1.6,1.6,0,0,0-2.879.9c-.023.589-.023.589-.583.589-.472,0-.472,0-.483-.535a1.606,1.606,0,0,0-1.43-1.587,1.623,1.623,0,0,0-1.726,1.227,2.52,2.52,0,0,0-.034.683c0,.166-.06.207-.218.214-.846.042-.846.046-.846-.8,0-.7.012-1.395-.006-2.091-.007-.258.083-.307.318-.306m6.077,2.857c0-.458.178-.7.52-.706s.51.238.544.711c.035.505-.328.271-.512.328-.594-.008-.549.068-.552-.333m-3.694.333c-.569,0-.569,0-.568-.34,0-.453.178-.692.52-.7s.516.243.553.708c.041.505-.318.28-.5.332m1.558,3.739c-.582-.008-.509.068-.515-.342-.006-.463.172-.707.505-.716s.54.248.534.723c-.005.407.054.326-.524.335m4.239,0c-.186-.053-.547.176-.5-.333.038-.463.2-.731.54-.726s.533.272.527.74c-.006.381.065.312-.562.32m2.7-2.378c-.019.353,0,.708,0,1.061s-.009.729,0,1.093c.006.179-.055.249-.23.223a.264.264,0,0,0-.031,0c-.249,0-.551.079-.734-.033s-.051-.44-.075-.671a1.608,1.608,0,0,0-1.627-1.422,1.591,1.591,0,0,0-1.566,1.446c-.021.221.108.557-.079.639a2.356,2.356,0,0,1-.862.039c-.126,0-.117-.09-.119-.174a4.5,4.5,0,0,0-.017-.53,1.6,1.6,0,0,0-1.719-1.419,1.621,1.621,0,0,0-1.487,1.571c-.035.554-.035.554-.589.554-.593,0-1.187-.009-1.78.005-.211,0-.288-.044-.283-.271q.022-1.046,0-2.092c-.006-.238.066-.295.3-.294,2.415.008,4.83.005,7.245.005,1.125,0,2.249.005,3.373,0,.211,0,.295.048.283.274m7.989,2.124c0-.426,0-.853,0-1.279a1.07,1.07,0,0,0-1.1-1.138c-.343-.011-.687-.014-1.029,0a1.051,1.051,0,0,0-1.065,1.073q-.018,1.341,0,2.682a1.018,1.018,0,0,0,1.016,1.045c.395.018.791.018,1.185,0a1.027,1.027,0,0,0,.989-1.041c.007-.447,0-.895,0-1.341m-1.293,1.323c-.833.016-.833.024-.833-.806,0-.177,0-.353,0-.53,0-.363.009-.727,0-1.089-.006-.181.06-.223.231-.228.835-.024.835-.029.835.807,0,.529-.006,1.059,0,1.588,0,.176-.027.254-.233.258m.666-22.383q-2.028-.006-4.056,0c-.419,0-.653.206-.643.547s.241.52.642.522c.676,0,1.352,0,2.028,0s1.352,0,2.028,0c.391,0,.627-.207.628-.536s-.221-.531-.626-.532m-7.529,13.318h-10.838c-.864,0-1.262.394-1.262,1.254q0,3.279,0,6.558c0,.868.389,1.253,1.26,1.253q2.7,0,5.4,0,2.718,0,5.435,0a1.072,1.072,0,0,0,1.228-1.219q0-3.311,0-6.621a1.081,1.081,0,0,0-1.225-1.226m-10.714,1.066c1.758.009,3.517.005,5.276.005s3.537,0,5.306-.005c.227,0,.3.051.3.291-.015.884-.011,1.768,0,2.653,0,.186-.042.254-.241.251q-1.092-.017-2.185,0c-.2,0-.249-.075-.242-.256a1.808,1.808,0,0,0-.326-1.238,1.6,1.6,0,0,0-2.879.9c-.023.589-.023.589-.583.589-.472,0-.472,0-.483-.535a1.606,1.606,0,0,0-1.43-1.587,1.623,1.623,0,0,0-1.726,1.227,2.52,2.52,0,0,0-.034.683c0,.166-.06.207-.218.214-.846.042-.846.046-.846-.8,0-.7.012-1.395-.006-2.091-.007-.258.083-.307.318-.306m6.077,2.857c0-.458.178-.7.52-.706s.51.238.544.711c.035.505-.328.271-.512.328-.594-.008-.549.068-.552-.333m-3.694.333c-.569,0-.569,0-.568-.34,0-.453.178-.692.52-.7s.516.243.553.708c.041.505-.318.28-.5.332m1.558,3.739c-.582-.008-.509.068-.515-.342-.006-.463.172-.707.505-.716s.54.248.534.723c-.005.407.054.326-.524.335m4.239,0c-.186-.053-.547.176-.5-.333.038-.463.2-.731.54-.726s.533.272.527.74c-.006.381.065.312-.562.32m2.7-2.378c-.019.353,0,.708,0,1.061s-.009.729,0,1.093c.006.179-.055.249-.23.223a.264.264,0,0,0-.031,0c-.249,0-.551.079-.734-.033s-.051-.44-.075-.671a1.608,1.608,0,0,0-1.627-1.422,1.591,1.591,0,0,0-1.566,1.446c-.021.221.108.557-.079.639a2.356,2.356,0,0,1-.862.039c-.126,0-.117-.09-.119-.174a4.5,4.5,0,0,0-.017-.53,1.6,1.6,0,0,0-1.719-1.419,1.621,1.621,0,0,0-1.487,1.571c-.035.554-.035.554-.589.554-.593,0-1.187-.009-1.78.005-.211,0-.288-.044-.283-.271q.022-1.046,0-2.092c-.006-.238.066-.295.3-.294,2.415.008,4.83.005,7.245.005,1.125,0,2.249.005,3.373,0,.211,0,.295.048.283.274m7.362-18.936q-2.028-.006-4.056,0c-.419,0-.653.206-.643.547s.241.52.642.522c.676,0,1.352,0,2.028,0s1.352,0,2.028,0c.391,0,.627-.207.628-.536s-.221-.531-.626-.532m.627,21.06c0-.426,0-.853,0-1.279a1.07,1.07,0,0,0-1.1-1.138c-.343-.011-.687-.014-1.029,0a1.051,1.051,0,0,0-1.065,1.073q-.018,1.341,0,2.682a1.018,1.018,0,0,0,1.016,1.045c.395.018.791.018,1.185,0a1.027,1.027,0,0,0,.989-1.041c.007-.447,0-.895,0-1.341m-1.293,1.323c-.833.016-.833.024-.833-.806,0-.177,0-.353,0-.53,0-.363.009-.727,0-1.089-.006-.181.06-.223.231-.228.835-.024.835-.029.835.807,0,.529-.006,1.059,0,1.588,0,.176-.027.254-.233.258m-6.863-9.065h-10.838c-.864,0-1.262.394-1.262,1.254q0,3.279,0,6.558c0,.868.389,1.253,1.26,1.253q2.7,0,5.4,0,2.718,0,5.435,0a1.072,1.072,0,0,0,1.228-1.219q0-3.311,0-6.621a1.081,1.081,0,0,0-1.225-1.226m-10.714,1.066c1.758.009,3.517.005,5.276.005s3.537,0,5.306-.005c.227,0,.3.051.3.291-.015.884-.011,1.768,0,2.653,0,.186-.042.254-.241.251q-1.092-.017-2.185,0c-.2,0-.249-.075-.242-.256a1.808,1.808,0,0,0-.326-1.238,1.6,1.6,0,0,0-2.879.9c-.023.589-.023.589-.583.589-.472,0-.472,0-.483-.535a1.606,1.606,0,0,0-1.43-1.587,1.623,1.623,0,0,0-1.726,1.227,2.52,2.52,0,0,0-.034.683c0,.166-.06.207-.218.214-.846.042-.846.046-.846-.8,0-.7.012-1.395-.006-2.091-.007-.258.083-.307.318-.306m6.077,2.857c0-.458.178-.7.52-.706s.51.238.544.711c.035.505-.328.271-.512.328-.594-.008-.549.068-.552-.333m-3.694.333c-.569,0-.569,0-.568-.34,0-.453.178-.692.52-.7s.516.243.553.708c.041.505-.318.28-.5.332m1.558,3.739c-.582-.008-.509.068-.515-.342-.006-.463.172-.707.505-.716s.54.248.534.723c-.005.407.054.326-.524.335m4.239,0c-.186-.053-.547.176-.5-.333.038-.463.2-.731.54-.726s.533.272.527.74c-.006.381.065.312-.562.32m2.7-2.378c-.019.353,0,.708,0,1.061s-.009.729,0,1.093c.006.179-.055.249-.23.223a.264.264,0,0,0-.031,0c-.249,0-.551.079-.734-.033s-.051-.44-.075-.671a1.608,1.608,0,0,0-1.627-1.422,1.591,1.591,0,0,0-1.566,1.446c-.021.221.108.557-.079.639a2.356,2.356,0,0,1-.862.039c-.126,0-.117-.09-.119-.174a4.5,4.5,0,0,0-.017-.53,1.6,1.6,0,0,0-1.719-1.419,1.621,1.621,0,0,0-1.487,1.571c-.035.554-.035.554-.589.554-.593,0-1.187-.009-1.78.005-.211,0-.288-.044-.283-.271q.022-1.046,0-2.092c-.006-.238.066-.295.3-.294,2.415.008,4.83.005,7.245.005,1.125,0,2.249.005,3.373,0,.211,0,.295.048.283.274m7.989,2.124c0-.426,0-.853,0-1.279a1.07,1.07,0,0,0-1.1-1.138c-.343-.011-.687-.014-1.029,0a1.051,1.051,0,0,0-1.065,1.073q-.018,1.341,0,2.682a1.018,1.018,0,0,0,1.016,1.045c.395.018.791.018,1.185,0a1.027,1.027,0,0,0,.989-1.041c.007-.447,0-.895,0-1.341m-1.293,1.323c-.833.016-.833.024-.833-.806,0-.177,0-.353,0-.53,0-.363.009-.727,0-1.089-.006-.181.06-.223.231-.228.835-.024.835-.029.835.807,0,.529-.006,1.059,0,1.588,0,.176-.027.254-.233.258m.666-22.383q-2.028-.006-4.056,0c-.419,0-.653.206-.643.547s.241.52.642.522c.676,0,1.352,0,2.028,0s1.352,0,2.028,0c.391,0,.627-.207.628-.536s-.221-.531-.626-.532m-7.529,13.318h-10.838c-.864,0-1.262.394-1.262,1.254q0,3.279,0,6.558c0,.868.389,1.253,1.26,1.253q2.7,0,5.4,0,2.718,0,5.435,0a1.072,1.072,0,0,0,1.228-1.219q0-3.311,0-6.621a1.081,1.081,0,0,0-1.225-1.226m-10.714,1.066c1.758.009,3.517.005,5.276.005s3.537,0,5.306-.005c.227,0,.3.051.3.291-.015.884-.011,1.768,0,2.653,0,.186-.042.254-.241.251q-1.092-.017-2.185,0c-.2,0-.249-.075-.242-.256a1.808,1.808,0,0,0-.326-1.238,1.6,1.6,0,0,0-2.879.9c-.023.589-.023.589-.583.589-.472,0-.472,0-.483-.535a1.606,1.606,0,0,0-1.43-1.587,1.623,1.623,0,0,0-1.726,1.227,2.52,2.52,0,0,0-.034.683c0,.166-.06.207-.218.214-.846.042-.846.046-.846-.8,0-.7.012-1.395-.006-2.091-.007-.258.083-.307.318-.306m6.077,2.857c0-.458.178-.7.52-.706s.51.238.544.711c.035.505-.328.271-.512.328-.594-.008-.549.068-.552-.333m-3.694.333c-.569,0-.569,0-.568-.34,0-.453.178-.692.52-.7s.516.243.553.708c.041.505-.318.28-.5.332m1.558,3.739c-.582-.008-.509.068-.515-.342-.006-.463.172-.707.505-.716s.54.248.534.723c-.005.407.054.326-.524.335m4.239,0c-.186-.053-.547.176-.5-.333.038-.463.2-.731.54-.726s.533.272.527.74c-.006.381.065.312-.562.32m2.7-2.378c-.019.353,0,.708,0,1.061s-.009.729,0,1.093c.006.179-.055.249-.23.223a.264.264,0,0,0-.031,0c-.249,0-.551.079-.734-.033s-.051-.44-.075-.671a1.608,1.608,0,0,0-1.627-1.422,1.591,1.591,0,0,0-1.566,1.446c-.021.221.108.557-.079.639a2.356,2.356,0,0,1-.862.039c-.126,0-.117-.09-.119-.174a4.5,4.5,0,0,0-.017-.53,1.6,1.6,0,0,0-1.719-1.419,1.621,1.621,0,0,0-1.487,1.571c-.035.554-.035.554-.589.554-.593,0-1.187-.009-1.78.005-.211,0-.288-.044-.283-.271q.022-1.046,0-2.092c-.006-.238.066-.295.3-.294,2.415.008,4.83.005,7.245.005,1.125,0,2.249.005,3.373,0,.211,0,.295.048.283.274m7.362-18.936q-2.028-.006-4.056,0c-.419,0-.653.206-.643.547s.241.52.642.522c.676,0,1.352,0,2.028,0s1.352,0,2.028,0c.391,0,.627-.207.628-.536s-.221-.531-.626-.532m.627,21.06c0-.426,0-.853,0-1.279a1.07,1.07,0,0,0-1.1-1.138c-.343-.011-.687-.014-1.029,0a1.051,1.051,0,0,0-1.065,1.073q-.018,1.341,0,2.682a1.018,1.018,0,0,0,1.016,1.045c.395.018.791.018,1.185,0a1.027,1.027,0,0,0,.989-1.041c.007-.447,0-.895,0-1.341m-1.293,1.323c-.833.016-.833.024-.833-.806,0-.177,0-.353,0-.53,0-.363.009-.727,0-1.089-.006-.181.06-.223.231-.228.835-.024.835-.029.835.807,0,.529-.006,1.059,0,1.588,0,.176-.027.254-.233.258m-6.863-9.065h-10.838c-.864,0-1.262.394-1.262,1.254q0,3.279,0,6.558c0,.868.389,1.253,1.26,1.253q2.7,0,5.4,0,2.718,0,5.435,0a1.072,1.072,0,0,0,1.228-1.219q0-3.311,0-6.621a1.081,1.081,0,0,0-1.225-1.226m-10.714,1.066c1.758.009,3.517.005,5.276.005s3.537,0,5.306-.005c.227,0,.3.051.3.291-.015.884-.011,1.768,0,2.653,0,.186-.042.254-.241.251q-1.092-.017-2.185,0c-.2,0-.249-.075-.242-.256a1.808,1.808,0,0,0-.326-1.238,1.6,1.6,0,0,0-2.879.9c-.023.589-.023.589-.583.589-.472,0-.472,0-.483-.535a1.606,1.606,0,0,0-1.43-1.587,1.623,1.623,0,0,0-1.726,1.227,2.52,2.52,0,0,0-.034.683c0,.166-.06.207-.218.214-.846.042-.846.046-.846-.8,0-.7.012-1.395-.006-2.091-.007-.258.083-.307.318-.306m6.077,2.857c0-.458.178-.7.52-.706s.51.238.544.711c.035.505-.328.271-.512.328-.594-.008-.549.068-.552-.333m-3.694.333c-.569,0-.569,0-.568-.34,0-.453.178-.692.52-.7s.516.243.553.708c.041.505-.318.28-.5.332m1.558,3.739c-.582-.008-.509.068-.515-.342-.006-.463.172-.707.505-.716s.54.248.534.723c-.005.407.054.326-.524.335m4.239,0c-.186-.053-.547.176-.5-.333.038-.463.2-.731.54-.726s.533.272.527.74c-.006.381.065.312-.562.32m2.7-2.378c-.019.353,0,.708,0,1.061s-.009.729,0,1.093c.006.179-.055.249-.23.223a.264.264,0,0,0-.031,0c-.249,0-.551.079-.734-.033s-.051-.44-.075-.671a1.608,1.608,0,0,0-1.627-1.422,1.591,1.591,0,0,0-1.566,1.446c-.021.221.108.557-.079.639a2.356,2.356,0,0,1-.862.039c-.126,0-.117-.09-.119-.174a4.5,4.5,0,0,0-.017-.53,1.6,1.6,0,0,0-1.719-1.419,1.621,1.621,0,0,0-1.487,1.571c-.035.554-.035.554-.589.554-.593,0-1.187-.009-1.78.005-.211,0-.288-.044-.283-.271q.022-1.046,0-2.092c-.006-.238.066-.295.3-.294,2.415.008,4.83.005,7.245.005,1.125,0,2.249.005,3.373,0,.211,0,.295.048.283.274m7.989,2.124c0-.426,0-.853,0-1.279a1.07,1.07,0,0,0-1.1-1.138c-.343-.011-.687-.014-1.029,0a1.051,1.051,0,0,0-1.065,1.073q-.018,1.341,0,2.682a1.018,1.018,0,0,0,1.016,1.045c.395.018.791.018,1.185,0a1.027,1.027,0,0,0,.989-1.041c.007-.447,0-.895,0-1.341m-1.293,1.323c-.833.016-.833.024-.833-.806,0-.177,0-.353,0-.53,0-.363.009-.727,0-1.089-.006-.181.06-.223.231-.228.835-.024.835-.029.835.807,0,.529-.006,1.059,0,1.588,0,.176-.027.254-.233.258m.666-22.383q-2.028-.006-4.056,0c-.419,0-.653.206-.643.547s.241.52.642.522c.676,0,1.352,0,2.028,0s1.352,0,2.028,0c.391,0,.627-.207.628-.536s-.221-.531-.626-.532m8.136,23.442a.721.721,0,0,1-.424-.78c.008-2.2,0-4.393,0-6.589q0-2.3,0-4.591a.955.955,0,0,1,.222-.725,1.273,1.273,0,0,0,.34-.943c0-.51,0-1.02,0-1.53a1.337,1.337,0,0,0-.293-.868q-.8-1.018-1.619-2.023a1.888,1.888,0,0,0-1.347-.757c-.521-.043-1.04-.018-1.56-.031-.453-.013-.55-.1-.551-.557-.006-.968.015-1.936-.009-2.9a1.663,1.663,0,0,1,.482-1.29,2.051,2.051,0,0,0,.078-2.808,5.489,5.489,0,0,0-3.375-1.712c-.542-.092-1.1-.068-1.643-.133h-10.558c-.424.052-.854.038-1.277.088a5.685,5.685,0,0,0-3.673,1.685,2,2,0,0,0-.576,1.471,2.16,2.16,0,0,0,.666,1.5,1.311,1.311,0,0,1,.4,1.007c-.014,1.02,0,2.04-.006,3.06,0,.48-.11.584-.594.588-.728.006-1.458,0-2.186,0a2.08,2.08,0,0,0-1.731.77c-.548.695-1.112,1.377-1.654,2.076a1.214,1.214,0,0,0-.265.751c-.006.562-.01,1.125,0,1.686a1.041,1.041,0,0,0,.226.73,1.331,1.331,0,0,1,.333,1q-.009,5.481,0,10.961c0,.083,0,.167,0,.25a.57.57,0,0,1-.331.554,1.078,1.078,0,0,0-.608,1.064c.009.572,0,1.145,0,1.717,0,.758.273,1.031,1.032,1.047h29.886c.778,0,.925-.115,1.1-.843v-2.124a.954.954,0,0,0-.488-.8m-1.124-14.688a.148.148,0,0,0,0,.062c.288,1.12-.533,1.62-1.223,2.2-.087.073-.142.045-.211-.017q-.561-.495-1.124-.985a.2.2,0,0,1-.083-.159c0-.394,0-.789,0-1.183,0-.165.127-.134.225-.135.363,0,.726,0,1.089,0s.727.006,1.089,0c.166,0,.262.04.237.225m-2.08-2.88a.45.45,0,0,1,.359.159c.368.447.728.9,1.144,1.416a8.559,8.559,0,0,0-1.263.011,1.272,1.272,0,0,1-1.58-.892,4.851,4.851,0,0,0-.406-.693c.626,0,1.187,0,1.747,0m-1.88,2.655c.172,0,.243.051.238.231-.011.332-.007.666,0,1a.349.349,0,0,1-.134.3c-.348.3-.7.595-1.034.905-.132.122-.221.106-.334-.013a4.306,4.306,0,0,0-.327-.289c-.864-.738-.859-.738-.838-1.88,0-.189.05-.258.244-.251.365.013.729,0,1.093,0s.729.006,1.094,0m-2.568-1.081c-.09,0-.126-.06-.163-.123-.251-.419-.5-.84-.756-1.256-.084-.139-.077-.2.1-.2.7,0,1.4,0,2.093,0,.086,0,.165,0,.217.088.285.48.572.958.888,1.487-.832,0-1.608,0-2.383,0m-3.586,1.239c0-.152.1-.156.213-.155h1.12c.374,0,.747.005,1.121,0,.161,0,.23.056.211.218a.468.468,0,0,0,0,.155c.286,1.122-.622,1.538-1.251,2.12-.089.083-.149.014-.211-.039q-.552-.48-1.1-.962a.238.238,0,0,1-.1-.182c0-.384,0-.768,0-1.152m-.046-1.237c-.122,0-.156-.071-.191-.162-.16-.4-.313-.811-.485-1.21-.08-.187-.008-.208.153-.207.56.005,1.121,0,1.681,0,.095,0,.185,0,.244.1.283.478.57.955.885,1.479-.8,0-1.542,0-2.285,0m3.174-10.882a6.161,6.161,0,0,1,1.767.675,3.558,3.558,0,0,1,.484.339.947.947,0,0,1,.016,1.629,1.694,1.694,0,0,0-.6,1.345c.007,1.311,0,2.622.007,3.932,0,.225-.047.3-.289.3q-3.433-.013-6.867,0c-.224,0-.3-.048-.3-.291.013-1.311.009-2.621,0-3.932a.711.711,0,0,1,.259-.57,2.008,2.008,0,0,0-.069-3.251c-.182-.151-.379-.285-.569-.427a26.862,26.862,0,0,1,6.164.251m-4.2,13.216a.314.314,0,0,1-.131.264c-.353.3-.706.61-1.052.924a.175.175,0,0,1-.284,0c-.346-.313-.7-.616-1.054-.923a.268.268,0,0,1-.124-.2c0-.384,0-.768,0-1.152,0-.178.12-.162.235-.162h1.09c.374,0,.747,0,1.121,0,.144,0,.2.045.2.2-.009.352-.007.705,0,1.058m-2.648-3.713c0-.144.043-.2.195-.2.467.007.935,0,1.4,0,.086,0,.163,0,.2.1.189.479.382.957.588,1.474-.771,0-1.495,0-2.219,0-.148,0-.167-.077-.166-.2,0-.394.006-.789,0-1.183m-9.088-8.518a5.758,5.758,0,0,1,2.657-1.08,11.02,11.02,0,0,1,5.424.288,4.212,4.212,0,0,1,1.636.874.926.926,0,0,1-.012,1.548,1.841,1.841,0,0,0-.644,1.489c.007,1.249-.009,2.5.01,3.747,0,.313-.094.375-.385.371-1.3-.015-2.6-.006-3.9-.006s-2.623-.007-3.935.006c-.25,0-.31-.074-.307-.315.011-1.311,0-2.623.008-3.934a1.674,1.674,0,0,0-.59-1.32.956.956,0,0,1,.042-1.667m8,9.714c0,.163-.078.186-.211.184-.332-.006-.664,0-1,0s-.644-.006-.965,0c-.156,0-.21-.034-.144-.193.17-.411.333-.826.5-1.239a.2.2,0,0,1,.2-.149q.717.008,1.433,0c.135,0,.182.05.181.182,0,.4-.007.81,0,1.214m-1.324,1.264c.364,0,.726.007,1.089,0,.173,0,.256.051.233.231a.168.168,0,0,0,0,.062c.293,1.125-.54,1.618-1.228,2.193-.091.076-.146.033-.212-.026-.365-.322-.734-.642-1.1-.966a.257.257,0,0,1-.1-.148c-.009-.4-.008-.809-.005-1.214,0-.167.135-.127.23-.129.363,0,.726,0,1.089,0m-2.4,1.241a.321.321,0,0,1-.122.269c-.354.3-.708.609-1.054.922-.115.1-.2.113-.311,0a3.4,3.4,0,0,0-.634-.549c-.755-.423-.518-1.126-.543-1.759,0-.143.113-.124.2-.125.374,0,.747,0,1.121,0s.747,0,1.12,0c.158,0,.225.051.221.216-.008.342-.006.685,0,1.027m-2.242-2.323c.313-.522.593-.98.862-1.445a.277.277,0,0,1,.286-.133c.55,0,1.1.006,1.65,0,.188,0,.238.039.157.227-.169.389-.319.786-.473,1.182-.041.1-.084.174-.217.174-.735-.006-1.47,0-2.266,0m-2.864-1.452a.231.231,0,0,1,.227-.125c.7,0,1.4.006,2.093,0,.215,0,.191.078.106.216q-.374.612-.738,1.23a.23.23,0,0,1-.221.135c-.758,0-1.516,0-2.336,0,.315-.527.594-.988.868-1.452m.063,2.534c.333,0,.667.018,1-.006.271-.019.356.085.315.335a.09.09,0,0,0,0,.031c.287,1.121-.61,1.549-1.245,2.13-.092.083-.152.015-.213-.038-.37-.32-.737-.643-1.107-.963a.267.267,0,0,1-.1-.218c0-.354.006-.708,0-1.062,0-.169.073-.213.226-.211.374.006.749,0,1.124,0m-3.3-2.544a.362.362,0,0,1,.283-.111h1.771c-.313.521-.591.982-.866,1.444a.21.21,0,0,1-.192.13c-.7,0-1.406,0-2.2,0,.431-.527.811-1,1.2-1.462m-1.544,2.542c.363.009.726,0,1.089,0s.727.006,1.09,0c.167,0,.261.041.234.226a.156.156,0,0,0,0,.062c.294,1.124-.542,1.615-1.225,2.195-.087.073-.142.045-.212-.017-.365-.323-.731-.645-1.1-.962a.288.288,0,0,1-.105-.244c0-.342.009-.685,0-1.027-.006-.177.057-.237.232-.232m16.81,17.133c0,.54.044.454-.44.454q-3.388,0-6.776,0h-1.592c-2.82,0-5.641,0-8.461.006-.264,0-.34-.073-.324-.33a9.566,9.566,0,0,0,0-1.03c-.009-.2.068-.263.252-.243a1.707,1.707,0,0,0,.188,0h16.735c.416,0,.416,0,.416.422,0,.239,0,.479,0,.718m8.532.187c0,.226-.072.273-.283.273q-3.45-.01-6.9,0c-.228,0-.272-.077-.271-.285.008-1.852,0-3.7,0-5.557s0-3.7-.005-5.557c0-.242.037-.343.316-.342q3.419.018,6.837,0c.223,0,.3.044.3.289q-.012,5.588,0,11.176m-.232-12.531h-7.028c-.875,0-1.271.4-1.271,1.281,0,2.821,0,5.643.006,8.464,0,.287-.05.387-.367.386q-7.9-.017-15.8,0c-.279,0-.363-.064-.362-.356.011-3.633.007-7.266.007-10.9v-.346c.148.117.234.191.326.256a.8.8,0,0,0,1.033-.063c.38-.324.758-.652,1.125-.99a.222.222,0,0,1,.363,0c.352.324.716.636,1.08.947a.817.817,0,0,0,1.226-.009c.363-.312.727-.624,1.079-.948.127-.117.2-.119.333,0,.352.325.716.636,1.078.948a.817.817,0,0,0,1.226.011c.357-.3.714-.607,1.056-.926.152-.14.251-.154.41,0,.34.322.7.622,1.054.929a.808.808,0,0,0,1.2.008c.364-.311.729-.622,1.08-.947.148-.137.247-.127.389.006.328.3.67.594,1.009.886a.839.839,0,0,0,1.318,0c.336-.3.679-.583,1.008-.886.139-.128.234-.152.386-.009.357.334.73.652,1.1.967a.8.8,0,0,0,1.154,0c.359-.3.715-.606,1.056-.926.165-.154.271-.192.453-.011.31.307.654.58.982.868a.837.837,0,0,0,1.3.02c.348-.3.7-.592,1.032-.906.16-.15.261-.13.41.01.327.306.671.593,1.008.887a.83.83,0,0,0,1.272.018c.039-.03.082-.055.127-.085.08.106.045.213.045.31q0,5.45.008,10.9c0,.273-.062.366-.342.345-.353-.026-.708-.011-1.062,0-.145,0-.215-.043-.2-.2.007-.093,0-.187,0-.281q0-4.17,0-8.339c0-.93-.379-1.309-1.3-1.309m3.73,12.8c-.363-.015-.726,0-1.089,0s-.747-.006-1.12,0c-.158,0-.224-.046-.22-.211.008-.384.009-.768,0-1.152,0-.172.053-.239.231-.238q1.1.009,2.209,0c.174,0,.237.054.231.232-.011.373-.011.747,0,1.12.006.186-.044.258-.243.25m-6.695-6.341a1.07,1.07,0,0,0-1.1-1.138c-.343-.011-.687-.014-1.029,0a1.051,1.051,0,0,0-1.065,1.073q-.018,1.341,0,2.682a1.018,1.018,0,0,0,1.016,1.045c.395.018.791.018,1.185,0a1.027,1.027,0,0,0,.989-1.041c.007-.447,0-.895,0-1.341,0-.426,0-.853,0-1.279m-1.292,2.6c-.833.016-.833.024-.833-.806,0-.177,0-.353,0-.53,0-.363.009-.727,0-1.089-.006-.181.06-.223.231-.228.835-.024.835-.029.835.807,0,.529-.006,1.059,0,1.588,0,.176-.027.254-.233.258m-3.391-21.315c.676,0,1.352,0,2.028,0s1.352,0,2.028,0c.391,0,.627-.207.628-.536s-.221-.531-.626-.532q-2.028-.006-4.056,0c-.419,0-.653.206-.643.547s.241.52.642.522m-3.471,12.25h-10.838c-.864,0-1.262.394-1.262,1.254q0,3.279,0,6.558c0,.868.389,1.253,1.26,1.253q2.7,0,5.4,0,2.718,0,5.435,0a1.072,1.072,0,0,0,1.228-1.219q0-3.311,0-6.621a1.081,1.081,0,0,0-1.225-1.226m-10.714,1.066c1.758.009,3.517.005,5.276.005s3.537,0,5.306-.005c.227,0,.3.051.3.291-.015.884-.011,1.768,0,2.653,0,.186-.042.254-.241.251q-1.092-.017-2.185,0c-.2,0-.249-.075-.242-.256a1.808,1.808,0,0,0-.326-1.238,1.6,1.6,0,0,0-2.879.9c-.023.589-.023.589-.583.589-.472,0-.472,0-.483-.535a1.606,1.606,0,0,0-1.43-1.587,1.623,1.623,0,0,0-1.726,1.227,2.52,2.52,0,0,0-.034.683c0,.166-.06.207-.218.214-.846.042-.846.046-.846-.8,0-.7.012-1.395-.006-2.091-.007-.258.083-.307.318-.306m6.077,2.857c0-.458.178-.7.52-.706s.51.238.544.711c.035.505-.328.271-.512.328-.594-.008-.549.068-.552-.333m-3.694.333c-.569,0-.569,0-.568-.34,0-.453.178-.692.52-.7s.516.243.553.708c.041.505-.318.28-.5.332m1.558,3.739c-.582-.008-.509.068-.515-.342-.006-.463.172-.707.505-.716s.54.248.534.723c-.005.407.054.326-.524.335m4.239,0c-.186-.053-.547.176-.5-.333.038-.463.2-.731.54-.726s.533.272.527.74c-.006.381.065.312-.562.32m2.7-2.378c-.019.353,0,.708,0,1.061s-.009.729,0,1.093c.006.179-.055.249-.23.223a.264.264,0,0,0-.031,0c-.249,0-.551.079-.734-.033s-.051-.44-.075-.671a1.608,1.608,0,0,0-1.627-1.422,1.591,1.591,0,0,0-1.566,1.446c-.021.221.108.557-.079.639a2.356,2.356,0,0,1-.862.039c-.126,0-.117-.09-.119-.174a4.5,4.5,0,0,0-.017-.53,1.6,1.6,0,0,0-1.719-1.419,1.621,1.621,0,0,0-1.487,1.571c-.035.554-.035.554-.589.554-.593,0-1.187-.009-1.78.005-.211,0-.288-.044-.283-.271q.022-1.046,0-2.092c-.006-.238.066-.295.3-.294,2.415.008,4.83.005,7.245.005,1.125,0,2.249.005,3.373,0,.211,0,.295.048.283.274m7.362-18.936q-2.028-.006-4.056,0c-.419,0-.653.206-.643.547s.241.52.642.522c.676,0,1.352,0,2.028,0s1.352,0,2.028,0c.391,0,.627-.207.628-.536s-.221-.531-.626-.532m.627,21.06c0-.426,0-.853,0-1.279a1.07,1.07,0,0,0-1.1-1.138c-.343-.011-.687-.014-1.029,0a1.051,1.051,0,0,0-1.065,1.073q-.018,1.341,0,2.682a1.018,1.018,0,0,0,1.016,1.045c.395.018.791.018,1.185,0a1.027,1.027,0,0,0,.989-1.041c.007-.447,0-.895,0-1.341m-1.293,1.323c-.833.016-.833.024-.833-.806,0-.177,0-.353,0-.53,0-.363.009-.727,0-1.089-.006-.181.06-.223.231-.228.835-.024.835-.029.835.807,0,.529-.006,1.059,0,1.588,0,.176-.027.254-.233.258m-6.863-9.065h-10.838c-.864,0-1.262.394-1.262,1.254q0,3.279,0,6.558c0,.868.389,1.253,1.26,1.253q2.7,0,5.4,0,2.718,0,5.435,0a1.072,1.072,0,0,0,1.228-1.219q0-3.311,0-6.621a1.081,1.081,0,0,0-1.225-1.226m-10.714,1.066c1.758.009,3.517.005,5.276.005s3.537,0,5.306-.005c.227,0,.3.051.3.291-.015.884-.011,1.768,0,2.653,0,.186-.042.254-.241.251q-1.092-.017-2.185,0c-.2,0-.249-.075-.242-.256a1.808,1.808,0,0,0-.326-1.238,1.6,1.6,0,0,0-2.879.9c-.023.589-.023.589-.583.589-.472,0-.472,0-.483-.535a1.606,1.606,0,0,0-1.43-1.587,1.623,1.623,0,0,0-1.726,1.227,2.52,2.52,0,0,0-.034.683c0,.166-.06.207-.218.214-.846.042-.846.046-.846-.8,0-.7.012-1.395-.006-2.091-.007-.258.083-.307.318-.306m6.077,2.857c0-.458.178-.7.52-.706s.51.238.544.711c.035.505-.328.271-.512.328-.594-.008-.549.068-.552-.333m-3.694.333c-.569,0-.569,0-.568-.34,0-.453.178-.692.52-.7s.516.243.553.708c.041.505-.318.28-.5.332m1.558,3.739c-.582-.008-.509.068-.515-.342-.006-.463.172-.707.505-.716s.54.248.534.723c-.005.407.054.326-.524.335m4.239,0c-.186-.053-.547.176-.5-.333.038-.463.2-.731.54-.726s.533.272.527.74c-.006.381.065.312-.562.32m2.7-2.378c-.019.353,0,.708,0,1.061s-.009.729,0,1.093c.006.179-.055.249-.23.223a.264.264,0,0,0-.031,0c-.249,0-.551.079-.734-.033s-.051-.44-.075-.671a1.608,1.608,0,0,0-1.627-1.422,1.591,1.591,0,0,0-1.566,1.446c-.021.221.108.557-.079.639a2.356,2.356,0,0,1-.862.039c-.126,0-.117-.09-.119-.174a4.5,4.5,0,0,0-.017-.53,1.6,1.6,0,0,0-1.719-1.419,1.621,1.621,0,0,0-1.487,1.571c-.035.554-.035.554-.589.554-.593,0-1.187-.009-1.78.005-.211,0-.288-.044-.283-.271q.022-1.046,0-2.092c-.006-.238.066-.295.3-.294,2.415.008,4.83.005,7.245.005,1.125,0,2.249.005,3.373,0,.211,0,.295.048.283.274m7.989,2.124c0-.426,0-.853,0-1.279a1.07,1.07,0,0,0-1.1-1.138c-.343-.011-.687-.014-1.029,0a1.051,1.051,0,0,0-1.065,1.073q-.018,1.341,0,2.682a1.018,1.018,0,0,0,1.016,1.045c.395.018.791.018,1.185,0a1.027,1.027,0,0,0,.989-1.041c.007-.447,0-.895,0-1.341m-1.293,1.323c-.833.016-.833.024-.833-.806,0-.177,0-.353,0-.53,0-.363.009-.727,0-1.089-.006-.181.06-.223.231-.228.835-.024.835-.029.835.807,0,.529-.006,1.059,0,1.588,0,.176-.027.254-.233.258m.666-22.383q-2.028-.006-4.056,0c-.419,0-.653.206-.643.547s.241.52.642.522c.676,0,1.352,0,2.028,0s1.352,0,2.028,0c.391,0,.627-.207.628-.536s-.221-.531-.626-.532m-7.529,13.318h-10.838c-.864,0-1.262.394-1.262,1.254q0,3.279,0,6.558c0,.868.389,1.253,1.26,1.253q2.7,0,5.4,0,2.718,0,5.435,0a1.072,1.072,0,0,0,1.228-1.219q0-3.311,0-6.621a1.081,1.081,0,0,0-1.225-1.226m-10.714,1.066c1.758.009,3.517.005,5.276.005s3.537,0,5.306-.005c.227,0,.3.051.3.291-.015.884-.011,1.768,0,2.653,0,.186-.042.254-.241.251q-1.092-.017-2.185,0c-.2,0-.249-.075-.242-.256a1.808,1.808,0,0,0-.326-1.238,1.6,1.6,0,0,0-2.879.9c-.023.589-.023.589-.583.589-.472,0-.472,0-.483-.535a1.606,1.606,0,0,0-1.43-1.587,1.623,1.623,0,0,0-1.726,1.227,2.52,2.52,0,0,0-.034.683c0,.166-.06.207-.218.214-.846.042-.846.046-.846-.8,0-.7.012-1.395-.006-2.091-.007-.258.083-.307.318-.306m6.077,2.857c0-.458.178-.7.52-.706s.51.238.544.711c.035.505-.328.271-.512.328-.594-.008-.549.068-.552-.333m-3.694.333c-.569,0-.569,0-.568-.34,0-.453.178-.692.52-.7s.516.243.553.708c.041.505-.318.28-.5.332m1.558,3.739c-.582-.008-.509.068-.515-.342-.006-.463.172-.707.505-.716s.54.248.534.723c-.005.407.054.326-.524.335m4.239,0c-.186-.053-.547.176-.5-.333.038-.463.2-.731.54-.726s.533.272.527.74c-.006.381.065.312-.562.32m2.7-2.378c-.019.353,0,.708,0,1.061s-.009.729,0,1.093c.006.179-.055.249-.23.223a.264.264,0,0,0-.031,0c-.249,0-.551.079-.734-.033s-.051-.44-.075-.671a1.608,1.608,0,0,0-1.627-1.422,1.591,1.591,0,0,0-1.566,1.446c-.021.221.108.557-.079.639a2.356,2.356,0,0,1-.862.039c-.126,0-.117-.09-.119-.174a4.5,4.5,0,0,0-.017-.53,1.6,1.6,0,0,0-1.719-1.419,1.621,1.621,0,0,0-1.487,1.571c-.035.554-.035.554-.589.554-.593,0-1.187-.009-1.78.005-.211,0-.288-.044-.283-.271q.022-1.046,0-2.092c-.006-.238.066-.295.3-.294,2.415.008,4.83.005,7.245.005,1.125,0,2.249.005,3.373,0,.211,0,.295.048.283.274m7.362-18.936q-2.028-.006-4.056,0c-.419,0-.653.206-.643.547s.241.52.642.522c.676,0,1.352,0,2.028,0s1.352,0,2.028,0c.391,0,.627-.207.628-.536s-.221-.531-.626-.532m.627,21.06c0-.426,0-.853,0-1.279a1.07,1.07,0,0,0-1.1-1.138c-.343-.011-.687-.014-1.029,0a1.051,1.051,0,0,0-1.065,1.073q-.018,1.341,0,2.682a1.018,1.018,0,0,0,1.016,1.045c.395.018.791.018,1.185,0a1.027,1.027,0,0,0,.989-1.041c.007-.447,0-.895,0-1.341m-1.293,1.323c-.833.016-.833.024-.833-.806,0-.177,0-.353,0-.53,0-.363.009-.727,0-1.089-.006-.181.06-.223.231-.228.835-.024.835-.029.835.807,0,.529-.006,1.059,0,1.588,0,.176-.027.254-.233.258m-6.863-9.065h-10.838c-.864,0-1.262.394-1.262,1.254q0,3.279,0,6.558c0,.868.389,1.253,1.26,1.253q2.7,0,5.4,0,2.718,0,5.435,0a1.072,1.072,0,0,0,1.228-1.219q0-3.311,0-6.621a1.081,1.081,0,0,0-1.225-1.226m-10.714,1.066c1.758.009,3.517.005,5.276.005s3.537,0,5.306-.005c.227,0,.3.051.3.291-.015.884-.011,1.768,0,2.653,0,.186-.042.254-.241.251q-1.092-.017-2.185,0c-.2,0-.249-.075-.242-.256a1.808,1.808,0,0,0-.326-1.238,1.6,1.6,0,0,0-2.879.9c-.023.589-.023.589-.583.589-.472,0-.472,0-.483-.535a1.606,1.606,0,0,0-1.43-1.587,1.623,1.623,0,0,0-1.726,1.227,2.52,2.52,0,0,0-.034.683c0,.166-.06.207-.218.214-.846.042-.846.046-.846-.8,0-.7.012-1.395-.006-2.091-.007-.258.083-.307.318-.306m6.077,2.857c0-.458.178-.7.52-.706s.51.238.544.711c.035.505-.328.271-.512.328-.594-.008-.549.068-.552-.333m-3.694.333c-.569,0-.569,0-.568-.34,0-.453.178-.692.52-.7s.516.243.553.708c.041.505-.318.28-.5.332m1.558,3.739c-.582-.008-.509.068-.515-.342-.006-.463.172-.707.505-.716s.54.248.534.723c-.005.407.054.326-.524.335m4.239,0c-.186-.053-.547.176-.5-.333.038-.463.2-.731.54-.726s.533.272.527.74c-.006.381.065.312-.562.32m2.7-2.378c-.019.353,0,.708,0,1.061s-.009.729,0,1.093c.006.179-.055.249-.23.223a.264.264,0,0,0-.031,0c-.249,0-.551.079-.734-.033s-.051-.44-.075-.671a1.608,1.608,0,0,0-1.627-1.422,1.591,1.591,0,0,0-1.566,1.446c-.021.221.108.557-.079.639a2.356,2.356,0,0,1-.862.039c-.126,0-.117-.09-.119-.174a4.5,4.5,0,0,0-.017-.53,1.6,1.6,0,0,0-1.719-1.419,1.621,1.621,0,0,0-1.487,1.571c-.035.554-.035.554-.589.554-.593,0-1.187-.009-1.78.005-.211,0-.288-.044-.283-.271q.022-1.046,0-2.092c-.006-.238.066-.295.3-.294,2.415.008,4.83.005,7.245.005,1.125,0,2.249.005,3.373,0,.211,0,.295.048.283.274m7.989,2.124c0-.426,0-.853,0-1.279a1.07,1.07,0,0,0-1.1-1.138c-.343-.011-.687-.014-1.029,0a1.051,1.051,0,0,0-1.065,1.073q-.018,1.341,0,2.682a1.018,1.018,0,0,0,1.016,1.045c.395.018.791.018,1.185,0a1.027,1.027,0,0,0,.989-1.041c.007-.447,0-.895,0-1.341m-1.293,1.323c-.833.016-.833.024-.833-.806,0-.177,0-.353,0-.53,0-.363.009-.727,0-1.089-.006-.181.06-.223.231-.228.835-.024.835-.029.835.807,0,.529-.006,1.059,0,1.588,0,.176-.027.254-.233.258m.666-22.383q-2.028-.006-4.056,0c-.419,0-.653.206-.643.547s.241.52.642.522c.676,0,1.352,0,2.028,0s1.352,0,2.028,0c.391,0,.627-.207.628-.536s-.221-.531-.626-.532m-7.529,13.318h-10.838c-.864,0-1.262.394-1.262,1.254q0,3.279,0,6.558c0,.868.389,1.253,1.26,1.253q2.7,0,5.4,0,2.718,0,5.435,0a1.072,1.072,0,0,0,1.228-1.219q0-3.311,0-6.621a1.081,1.081,0,0,0-1.225-1.226m-10.714,1.066c1.758.009,3.517.005,5.276.005s3.537,0,5.306-.005c.227,0,.3.051.3.291-.015.884-.011,1.768,0,2.653,0,.186-.042.254-.241.251q-1.092-.017-2.185,0c-.2,0-.249-.075-.242-.256a1.808,1.808,0,0,0-.326-1.238,1.6,1.6,0,0,0-2.879.9c-.023.589-.023.589-.583.589-.472,0-.472,0-.483-.535a1.606,1.606,0,0,0-1.43-1.587,1.623,1.623,0,0,0-1.726,1.227,2.52,2.52,0,0,0-.034.683c0,.166-.06.207-.218.214-.846.042-.846.046-.846-.8,0-.7.012-1.395-.006-2.091-.007-.258.083-.307.318-.306m6.077,2.857c0-.458.178-.7.52-.706s.51.238.544.711c.035.505-.328.271-.512.328-.594-.008-.549.068-.552-.333m-3.694.333c-.569,0-.569,0-.568-.34,0-.453.178-.692.52-.7s.516.243.553.708c.041.505-.318.28-.5.332m1.558,3.739c-.582-.008-.509.068-.515-.342-.006-.463.172-.707.505-.716s.54.248.534.723c-.005.407.054.326-.524.335m4.239,0c-.186-.053-.547.176-.5-.333.038-.463.2-.731.54-.726s.533.272.527.74c-.006.381.065.312-.562.32m2.7-2.378c-.019.353,0,.708,0,1.061s-.009.729,0,1.093c.006.179-.055.249-.23.223a.264.264,0,0,0-.031,0c-.249,0-.551.079-.734-.033s-.051-.44-.075-.671a1.608,1.608,0,0,0-1.627-1.422,1.591,1.591,0,0,0-1.566,1.446c-.021.221.108.557-.079.639a2.356,2.356,0,0,1-.862.039c-.126,0-.117-.09-.119-.174a4.5,4.5,0,0,0-.017-.53,1.6,1.6,0,0,0-1.719-1.419,1.621,1.621,0,0,0-1.487,1.571c-.035.554-.035.554-.589.554-.593,0-1.187-.009-1.78.005-.211,0-.288-.044-.283-.271q.022-1.046,0-2.092c-.006-.238.066-.295.3-.294,2.415.008,4.83.005,7.245.005,1.125,0,2.249.005,3.373,0,.211,0,.295.048.283.274m7.362-18.936q-2.028-.006-4.056,0c-.419,0-.653.206-.643.547s.241.52.642.522c.676,0,1.352,0,2.028,0s1.352,0,2.028,0c.391,0,.627-.207.628-.536s-.221-.531-.626-.532m.627,21.06c0-.426,0-.853,0-1.279a1.07,1.07,0,0,0-1.1-1.138c-.343-.011-.687-.014-1.029,0a1.051,1.051,0,0,0-1.065,1.073q-.018,1.341,0,2.682a1.018,1.018,0,0,0,1.016,1.045c.395.018.791.018,1.185,0a1.027,1.027,0,0,0,.989-1.041c.007-.447,0-.895,0-1.341m-1.293,1.323c-.833.016-.833.024-.833-.806,0-.177,0-.353,0-.53,0-.363.009-.727,0-1.089-.006-.181.06-.223.231-.228.835-.024.835-.029.835.807,0,.529-.006,1.059,0,1.588,0,.176-.027.254-.233.258m-6.863-9.065h-10.838c-.864,0-1.262.394-1.262,1.254q0,3.279,0,6.558c0,.868.389,1.253,1.26,1.253q2.7,0,5.4,0,2.718,0,5.435,0a1.072,1.072,0,0,0,1.228-1.219q0-3.311,0-6.621a1.081,1.081,0,0,0-1.225-1.226m-10.714,1.066c1.758.009,3.517.005,5.276.005s3.537,0,5.306-.005c.227,0,.3.051.3.291-.015.884-.011,1.768,0,2.653,0,.186-.042.254-.241.251q-1.092-.017-2.185,0c-.2,0-.249-.075-.242-.256a1.808,1.808,0,0,0-.326-1.238,1.6,1.6,0,0,0-2.879.9c-.023.589-.023.589-.583.589-.472,0-.472,0-.483-.535a1.606,1.606,0,0,0-1.43-1.587,1.623,1.623,0,0,0-1.726,1.227,2.52,2.52,0,0,0-.034.683c0,.166-.06.207-.218.214-.846.042-.846.046-.846-.8,0-.7.012-1.395-.006-2.091-.007-.258.083-.307.318-.306m6.077,2.857c0-.458.178-.7.52-.706s.51.238.544.711c.035.505-.328.271-.512.328-.594-.008-.549.068-.552-.333m-3.694.333c-.569,0-.569,0-.568-.34,0-.453.178-.692.52-.7s.516.243.553.708c.041.505-.318.28-.5.332m1.558,3.739c-.582-.008-.509.068-.515-.342-.006-.463.172-.707.505-.716s.54.248.534.723c-.005.407.054.326-.524.335m4.239,0c-.186-.053-.547.176-.5-.333.038-.463.2-.731.54-.726s.533.272.527.74c-.006.381.065.312-.562.32m2.7-2.378c-.019.353,0,.708,0,1.061s-.009.729,0,1.093c.006.179-.055.249-.23.223a.264.264,0,0,0-.031,0c-.249,0-.551.079-.734-.033s-.051-.44-.075-.671a1.608,1.608,0,0,0-1.627-1.422,1.591,1.591,0,0,0-1.566,1.446c-.021.221.108.557-.079.639a2.356,2.356,0,0,1-.862.039c-.126,0-.117-.09-.119-.174a4.5,4.5,0,0,0-.017-.53,1.6,1.6,0,0,0-1.719-1.419,1.621,1.621,0,0,0-1.487,1.571c-.035.554-.035.554-.589.554-.593,0-1.187-.009-1.78.005-.211,0-.288-.044-.283-.271q.022-1.046,0-2.092c-.006-.238.066-.295.3-.294,2.415.008,4.83.005,7.245.005,1.125,0,2.249.005,3.373,0,.211,0,.295.048.283.274m7.989,2.124c0-.426,0-.853,0-1.279a1.07,1.07,0,0,0-1.1-1.138c-.343-.011-.687-.014-1.029,0a1.051,1.051,0,0,0-1.065,1.073q-.018,1.341,0,2.682a1.018,1.018,0,0,0,1.016,1.045c.395.018.791.018,1.185,0a1.027,1.027,0,0,0,.989-1.041c.007-.447,0-.895,0-1.341m-1.293,1.323c-.833.016-.833.024-.833-.806,0-.177,0-.353,0-.53,0-.363.009-.727,0-1.089-.006-.181.06-.223.231-.228.835-.024.835-.029.835.807,0,.529-.006,1.059,0,1.588,0,.176-.027.254-.233.258m.666-22.383q-2.028-.006-4.056,0c-.419,0-.653.206-.643.547s.241.52.642.522c.676,0,1.352,0,2.028,0s1.352,0,2.028,0c.391,0,.627-.207.628-.536s-.221-.531-.626-.532m-7.529,13.318h-10.838c-.864,0-1.262.394-1.262,1.254q0,3.279,0,6.558c0,.868.389,1.253,1.26,1.253q2.7,0,5.4,0,2.718,0,5.435,0a1.072,1.072,0,0,0,1.228-1.219q0-3.311,0-6.621a1.081,1.081,0,0,0-1.225-1.226m-10.714,1.066c1.758.009,3.517.005,5.276.005s3.537,0,5.306-.005c.227,0,.3.051.3.291-.015.884-.011,1.768,0,2.653,0,.186-.042.254-.241.251q-1.092-.017-2.185,0c-.2,0-.249-.075-.242-.256a1.808,1.808,0,0,0-.326-1.238,1.6,1.6,0,0,0-2.879.9c-.023.589-.023.589-.583.589-.472,0-.472,0-.483-.535a1.606,1.606,0,0,0-1.43-1.587,1.623,1.623,0,0,0-1.726,1.227,2.52,2.52,0,0,0-.034.683c0,.166-.06.207-.218.214-.846.042-.846.046-.846-.8,0-.7.012-1.395-.006-2.091-.007-.258.083-.307.318-.306m6.077,2.857c0-.458.178-.7.52-.706s.51.238.544.711c.035.505-.328.271-.512.328-.594-.008-.549.068-.552-.333m-3.694.333c-.569,0-.569,0-.568-.34,0-.453.178-.692.52-.7s.516.243.553.708c.041.505-.318.28-.5.332m1.558,3.739c-.582-.008-.509.068-.515-.342-.006-.463.172-.707.505-.716s.54.248.534.723c-.005.407.054.326-.524.335m4.239,0c-.186-.053-.547.176-.5-.333.038-.463.2-.731.54-.726s.533.272.527.74c-.006.381.065.312-.562.32m2.7-2.378c-.019.353,0,.708,0,1.061s-.009.729,0,1.093c.006.179-.055.249-.23.223a.264.264,0,0,0-.031,0c-.249,0-.551.079-.734-.033s-.051-.44-.075-.671a1.608,1.608,0,0,0-1.627-1.422,1.591,1.591,0,0,0-1.566,1.446c-.021.221.108.557-.079.639a2.356,2.356,0,0,1-.862.039c-.126,0-.117-.09-.119-.174a4.5,4.5,0,0,0-.017-.53,1.6,1.6,0,0,0-1.719-1.419,1.621,1.621,0,0,0-1.487,1.571c-.035.554-.035.554-.589.554-.593,0-1.187-.009-1.78.005-.211,0-.288-.044-.283-.271q.022-1.046,0-2.092c-.006-.238.066-.295.3-.294,2.415.008,4.83.005,7.245.005,1.125,0,2.249.005,3.373,0,.211,0,.295.048.283.274m7.362-18.936q-2.028-.006-4.056,0c-.419,0-.653.206-.643.547s.241.52.642.522c.676,0,1.352,0,2.028,0s1.352,0,2.028,0c.391,0,.627-.207.628-.536s-.221-.531-.626-.532m-7.529,13.318h-10.838c-.864,0-1.262.394-1.262,1.254q0,3.279,0,6.558c0,.868.389,1.253,1.26,1.253q2.7,0,5.4,0,2.718,0,5.435,0a1.072,1.072,0,0,0,1.228-1.219q0-3.311,0-6.621a1.081,1.081,0,0,0-1.225-1.226m-10.714,1.066c1.758.009,3.517.005,5.276.005s3.537,0,5.306-.005c.227,0,.3.051.3.291-.015.884-.011,1.768,0,2.653,0,.186-.042.254-.241.251q-1.092-.017-2.185,0c-.2,0-.249-.075-.242-.256a1.808,1.808,0,0,0-.326-1.238,1.6,1.6,0,0,0-2.879.9c-.023.589-.023.589-.583.589-.472,0-.472,0-.483-.535a1.606,1.606,0,0,0-1.43-1.587,1.623,1.623,0,0,0-1.726,1.227,2.52,2.52,0,0,0-.034.683c0,.166-.06.207-.218.214-.846.042-.846.046-.846-.8,0-.7.012-1.395-.006-2.091-.007-.258.083-.307.318-.306m6.077,2.857c0-.458.178-.7.52-.706s.51.238.544.711c.035.505-.328.271-.512.328-.594-.008-.549.068-.552-.333m-3.694.333c-.569,0-.569,0-.568-.34,0-.453.178-.692.52-.7s.516.243.553.708c.041.505-.318.28-.5.332m1.558,3.739c-.582-.008-.509.068-.515-.342-.006-.463.172-.707.505-.716s.54.248.534.723c-.005.407.054.326-.524.335m4.239,0c-.186-.053-.547.176-.5-.333.038-.463.2-.731.54-.726s.533.272.527.74c-.006.381.065.312-.562.32m2.7-2.378c-.019.353,0,.708,0,1.061s-.009.729,0,1.093c.006.179-.055.249-.23.223a.264.264,0,0,0-.031,0c-.249,0-.551.079-.734-.033s-.051-.44-.075-.671a1.608,1.608,0,0,0-1.627-1.422,1.591,1.591,0,0,0-1.566,1.446c-.021.221.108.557-.079.639a2.356,2.356,0,0,1-.862.039c-.126,0-.117-.09-.119-.174a4.5,4.5,0,0,0-.017-.53,1.6,1.6,0,0,0-1.719-1.419,1.621,1.621,0,0,0-1.487,1.571c-.035.554-.035.554-.589.554-.593,0-1.187-.009-1.78.005-.211,0-.288-.044-.283-.271q.022-1.046,0-2.092c-.006-.238.066-.295.3-.294,2.415.008,4.83.005,7.245.005,1.125,0,2.249.005,3.373,0,.211,0,.295.048.283.274m7.362-18.936q-2.028-.006-4.056,0c-.419,0-.653.206-.643.547s.241.52.642.522c.676,0,1.352,0,2.028,0s1.352,0,2.028,0c.391,0,.627-.207.628-.536s-.221-.531-.626-.532m-7.529,13.318h-10.838c-.864,0-1.262.394-1.262,1.254q0,3.279,0,6.558c0,.868.389,1.253,1.26,1.253q2.7,0,5.4,0,2.718,0,5.435,0a1.072,1.072,0,0,0,1.228-1.219q0-3.311,0-6.621a1.081,1.081,0,0,0-1.225-1.226m-10.714,1.066c1.758.009,3.517.005,5.276.005s3.537,0,5.306-.005c.227,0,.3.051.3.291-.015.884-.011,1.768,0,2.653,0,.186-.042.254-.241.251q-1.092-.017-2.185,0c-.2,0-.249-.075-.242-.256a1.808,1.808,0,0,0-.326-1.238,1.6,1.6,0,0,0-2.879.9c-.023.589-.023.589-.583.589-.472,0-.472,0-.483-.535a1.606,1.606,0,0,0-1.43-1.587,1.623,1.623,0,0,0-1.726,1.227,2.52,2.52,0,0,0-.034.683c0,.166-.06.207-.218.214-.846.042-.846.046-.846-.8,0-.7.012-1.395-.006-2.091-.007-.258.083-.307.318-.306m6.077,2.857c0-.458.178-.7.52-.706s.51.238.544.711c.035.505-.328.271-.512.328-.594-.008-.549.068-.552-.333m-3.694.333c-.569,0-.569,0-.568-.34,0-.453.178-.692.52-.7s.516.243.553.708c.041.505-.318.28-.5.332m1.558,3.739c-.582-.008-.509.068-.515-.342-.006-.463.172-.707.505-.716s.54.248.534.723c-.005.407.054.326-.524.335m4.239,0c-.186-.053-.547.176-.5-.333.038-.463.2-.731.54-.726s.533.272.527.74c-.006.381.065.312-.562.32m2.7-2.378c-.019.353,0,.708,0,1.061s-.009.729,0,1.093c.006.179-.055.249-.23.223a.264.264,0,0,0-.031,0c-.249,0-.551.079-.734-.033s-.051-.44-.075-.671a1.608,1.608,0,0,0-1.627-1.422,1.591,1.591,0,0,0-1.566,1.446c-.021.221.108.557-.079.639a2.356,2.356,0,0,1-.862.039c-.126,0-.117-.09-.119-.174a4.5,4.5,0,0,0-.017-.53,1.6,1.6,0,0,0-1.719-1.419,1.621,1.621,0,0,0-1.487,1.571c-.035.554-.035.554-.589.554-.593,0-1.187-.009-1.78.005-.211,0-.288-.044-.283-.271q.022-1.046,0-2.092c-.006-.238.066-.295.3-.294,2.415.008,4.83.005,7.245.005,1.125,0,2.249.005,3.373,0,.211,0,.295.048.283.274m7.362-18.936q-2.028-.006-4.056,0c-.419,0-.653.206-.643.547s.241.52.642.522c.676,0,1.352,0,2.028,0s1.352,0,2.028,0c.391,0,.627-.207.628-.536s-.221-.531-.626-.532m-7.529,13.318h-10.838c-.864,0-1.262.394-1.262,1.254q0,3.279,0,6.558c0,.868.389,1.253,1.26,1.253q2.7,0,5.4,0,2.718,0,5.435,0a1.072,1.072,0,0,0,1.228-1.219q0-3.311,0-6.621a1.081,1.081,0,0,0-1.225-1.226m-10.714,1.066c1.758.009,3.517.005,5.276.005s3.537,0,5.306-.005c.227,0,.3.051.3.291-.015.884-.011,1.768,0,2.653,0,.186-.042.254-.241.251q-1.092-.017-2.185,0c-.2,0-.249-.075-.242-.256a1.808,1.808,0,0,0-.326-1.238,1.6,1.6,0,0,0-2.879.9c-.023.589-.023.589-.583.589-.472,0-.472,0-.483-.535a1.606,1.606,0,0,0-1.43-1.587,1.623,1.623,0,0,0-1.726,1.227,2.52,2.52,0,0,0-.034.683c0,.166-.06.207-.218.214-.846.042-.846.046-.846-.8,0-.7.012-1.395-.006-2.091-.007-.258.083-.307.318-.306m6.077,2.857c0-.458.178-.7.52-.706s.51.238.544.711c.035.505-.328.271-.512.328-.594-.008-.549.068-.552-.333m-3.694.333c-.569,0-.569,0-.568-.34,0-.453.178-.692.52-.7s.516.243.553.708c.041.505-.318.28-.5.332m1.558,3.739c-.582-.008-.509.068-.515-.342-.006-.463.172-.707.505-.716s.54.248.534.723c-.005.407.054.326-.524.335m4.239,0c-.186-.053-.547.176-.5-.333.038-.463.2-.731.54-.726s.533.272.527.74c-.006.381.065.312-.562.32m2.7-2.378c-.019.353,0,.708,0,1.061s-.009.729,0,1.093c.006.179-.055.249-.23.223a.264.264,0,0,0-.031,0c-.249,0-.551.079-.734-.033s-.051-.44-.075-.671a1.608,1.608,0,0,0-1.627-1.422,1.591,1.591,0,0,0-1.566,1.446c-.021.221.108.557-.079.639a2.356,2.356,0,0,1-.862.039c-.126,0-.117-.09-.119-.174a4.5,4.5,0,0,0-.017-.53,1.6,1.6,0,0,0-1.719-1.419,1.621,1.621,0,0,0-1.487,1.571c-.035.554-.035.554-.589.554-.593,0-1.187-.009-1.78.005-.211,0-.288-.044-.283-.271q.022-1.046,0-2.092c-.006-.238.066-.295.3-.294,2.415.008,4.83.005,7.245.005,1.125,0,2.249.005,3.373,0,.211,0,.295.048.283.274m7.362-18.936q-2.028-.006-4.056,0c-.419,0-.653.206-.643.547s.241.52.642.522c.676,0,1.352,0,2.028,0s1.352,0,2.028,0c.391,0,.627-.207.628-.536s-.221-.531-.626-.532m-7.529,13.318h-10.838c-.864,0-1.262.394-1.262,1.254q0,3.279,0,6.558c0,.868.389,1.253,1.26,1.253q2.7,0,5.4,0,2.718,0,5.435,0a1.072,1.072,0,0,0,1.228-1.219q0-3.311,0-6.621a1.081,1.081,0,0,0-1.225-1.226m-10.714,1.066c1.758.009,3.517.005,5.276.005s3.537,0,5.306-.005c.227,0,.3.051.3.291-.015.884-.011,1.768,0,2.653,0,.186-.042.254-.241.251q-1.092-.017-2.185,0c-.2,0-.249-.075-.242-.256a1.808,1.808,0,0,0-.326-1.238,1.6,1.6,0,0,0-2.879.9c-.023.589-.023.589-.583.589-.472,0-.472,0-.483-.535a1.606,1.606,0,0,0-1.43-1.587,1.623,1.623,0,0,0-1.726,1.227,2.52,2.52,0,0,0-.034.683c0,.166-.06.207-.218.214-.846.042-.846.046-.846-.8,0-.7.012-1.395-.006-2.091-.007-.258.083-.307.318-.306m6.077,2.857c0-.458.178-.7.52-.706s.51.238.544.711c.035.505-.328.271-.512.328-.594-.008-.549.068-.552-.333m-3.694.333c-.569,0-.569,0-.568-.34,0-.453.178-.692.52-.7s.516.243.553.708c.041.505-.318.28-.5.332m1.558,3.739c-.582-.008-.509.068-.515-.342-.006-.463.172-.707.505-.716s.54.248.534.723c-.005.407.054.326-.524.335m4.239,0c-.186-.053-.547.176-.5-.333.038-.463.2-.731.54-.726s.533.272.527.74c-.006.381.065.312-.562.32m2.7-2.378c-.019.353,0,.708,0,1.061s-.009.729,0,1.093c.006.179-.055.249-.23.223a.264.264,0,0,0-.031,0c-.249,0-.551.079-.734-.033s-.051-.44-.075-.671a1.608,1.608,0,0,0-1.627-1.422,1.591,1.591,0,0,0-1.566,1.446c-.021.221.108.557-.079.639a2.356,2.356,0,0,1-.862.039c-.126,0-.117-.09-.119-.174a4.5,4.5,0,0,0-.017-.53,1.6,1.6,0,0,0-1.719-1.419,1.621,1.621,0,0,0-1.487,1.571c-.035.554-.035.554-.589.554-.593,0-1.187-.009-1.78.005-.211,0-.288-.044-.283-.271q.022-1.046,0-2.092c-.006-.238.066-.295.3-.294,2.415.008,4.83.005,7.245.005,1.125,0,2.249.005,3.373,0,.211,0,.295.048.283.274m7.362-18.936q-2.028-.006-4.056,0c-.419,0-.653.206-.643.547s.241.52.642.522c.676,0,1.352,0,2.028,0s1.352,0,2.028,0c.391,0,.627-.207.628-.536s-.221-.531-.626-.532m0,0q-2.028-.006-4.056,0c-.419,0-.653.206-.643.547s.241.52.642.522c.676,0,1.352,0,2.028,0s1.352,0,2.028,0c.391,0,.627-.207.628-.536s-.221-.531-.626-.532m0,0q-2.028-.006-4.056,0c-.419,0-.653.206-.643.547s.241.52.642.522c.676,0,1.352,0,2.028,0s1.352,0,2.028,0c.391,0,.627-.207.628-.536s-.221-.531-.626-.532m0,0q-2.028-.006-4.056,0c-.419,0-.653.206-.643.547s.241.52.642.522c.676,0,1.352,0,2.028,0s1.352,0,2.028,0c.391,0,.627-.207.628-.536s-.221-.531-.626-.532m0,0q-2.028-.006-4.056,0c-.419,0-.653.206-.643.547s.241.52.642.522c.676,0,1.352,0,2.028,0s1.352,0,2.028,0c.391,0,.627-.207.628-.536s-.221-.531-.626-.532m0,0q-2.028-.006-4.056,0c-.419,0-.653.206-.643.547s.241.52.642.522c.676,0,1.352,0,2.028,0s1.352,0,2.028,0c.391,0,.627-.207.628-.536s-.221-.531-.626-.532m0,0q-2.028-.006-4.056,0c-.419,0-.653.206-.643.547s.241.52.642.522c.676,0,1.352,0,2.028,0s1.352,0,2.028,0c.391,0,.627-.207.628-.536s-.221-.531-.626-.532m0,0q-2.028-.006-4.056,0c-.419,0-.653.206-.643.547s.241.52.642.522c.676,0,1.352,0,2.028,0s1.352,0,2.028,0c.391,0,.627-.207.628-.536s-.221-.531-.626-.532m0,0q-2.028-.006-4.056,0c-.419,0-.653.206-.643.547s.241.52.642.522c.676,0,1.352,0,2.028,0s1.352,0,2.028,0c.391,0,.627-.207.628-.536s-.221-.531-.626-.532m0,0q-2.028-.006-4.056,0c-.419,0-.653.206-.643.547s.241.52.642.522c.676,0,1.352,0,2.028,0s1.352,0,2.028,0c.391,0,.627-.207.628-.536s-.221-.531-.626-.532m0,0q-2.028-.006-4.056,0c-.419,0-.653.206-.643.547s.241.52.642.522c.676,0,1.352,0,2.028,0s1.352,0,2.028,0c.391,0,.627-.207.628-.536s-.221-.531-.626-.532m0,0q-2.028-.006-4.056,0c-.419,0-.653.206-.643.547s.241.52.642.522c.676,0,1.352,0,2.028,0s1.352,0,2.028,0c.391,0,.627-.207.628-.536s-.221-.531-.626-.532m0,0q-2.028-.006-4.056,0c-.419,0-.653.206-.643.547s.241.52.642.522c.676,0,1.352,0,2.028,0s1.352,0,2.028,0c.391,0,.627-.207.628-.536s-.221-.531-.626-.532m0,0q-2.028-.006-4.056,0c-.419,0-.653.206-.643.547s.241.52.642.522c.676,0,1.352,0,2.028,0s1.352,0,2.028,0c.391,0,.627-.207.628-.536s-.221-.531-.626-.532m0,0q-2.028-.006-4.056,0c-.419,0-.653.206-.643.547s.241.52.642.522c.676,0,1.352,0,2.028,0s1.352,0,2.028,0c.391,0,.627-.207.628-.536s-.221-.531-.626-.532m0,0q-2.028-.006-4.056,0c-.419,0-.653.206-.643.547s.241.52.642.522c.676,0,1.352,0,2.028,0s1.352,0,2.028,0c.391,0,.627-.207.628-.536s-.221-.531-.626-.532" transform="translate(-1830.258 -99.428)" fill="#fff"/>
    <path id="Path_3492" data-name="Path 3492" d="M1902.39,388.458h-10.838c-.863,0-1.262.394-1.262,1.254q0,3.279,0,6.558c0,.868.389,1.253,1.26,1.253q2.7,0,5.4,0,2.718,0,5.435,0a1.072,1.072,0,0,0,1.228-1.219q0-3.311,0-6.621a1.081,1.081,0,0,0-1.225-1.226m-10.714,1.066c1.758.009,3.517.005,5.276.005s3.537,0,5.306-.005c.227,0,.3.051.3.292-.015.884-.011,1.768,0,2.653,0,.186-.042.254-.241.251q-1.092-.017-2.185,0c-.2,0-.249-.075-.241-.256a1.806,1.806,0,0,0-.327-1.238,1.6,1.6,0,0,0-2.878.9c-.023.589-.023.589-.583.589-.472,0-.472,0-.483-.535a1.606,1.606,0,0,0-1.43-1.587,1.623,1.623,0,0,0-1.726,1.227,2.535,2.535,0,0,0-.034.683c0,.166-.06.207-.218.214-.846.042-.846.046-.846-.8,0-.7.013-1.395-.006-2.091-.007-.258.083-.307.318-.306m6.077,2.857c0-.458.179-.7.52-.706s.51.238.544.711c.036.505-.327.271-.511.329-.594-.008-.549.068-.552-.333m-3.694.333c-.569,0-.569,0-.568-.34,0-.453.179-.692.52-.7s.516.243.553.708c.041.505-.318.28-.5.332m1.558,3.739c-.582-.008-.509.068-.514-.342-.006-.463.172-.707.505-.717s.54.248.533.723c-.005.407.054.326-.524.335m4.24,0c-.186-.053-.547.176-.505-.333.038-.463.2-.731.54-.726s.532.272.527.74c-.006.381.065.312-.562.32m2.7-2.378c-.019.353,0,.708,0,1.061s-.009.729,0,1.093c.006.179-.055.249-.23.223a.271.271,0,0,0-.031,0c-.25,0-.551.079-.735-.033s-.051-.44-.075-.671a1.608,1.608,0,0,0-1.626-1.422,1.591,1.591,0,0,0-1.566,1.446c-.021.221.108.557-.079.639a2.353,2.353,0,0,1-.861.039c-.126,0-.117-.09-.119-.174a4.55,4.55,0,0,0-.017-.53,1.6,1.6,0,0,0-1.719-1.419,1.622,1.622,0,0,0-1.487,1.571c-.034.554-.034.554-.588.554-.593,0-1.187-.009-1.78.005-.211,0-.288-.044-.283-.271q.023-1.046,0-2.092c-.006-.238.066-.295.3-.294,2.415.008,4.83.005,7.245.005,1.125,0,2.249,0,3.373,0,.211,0,.295.048.283.274" transform="translate(-1886.525 -370.34)" fill="#fff"/>
    <path id="Path_3493" data-name="Path 3493" d="M2165.592,475.673c0-.426,0-.852,0-1.279a1.07,1.07,0,0,0-1.1-1.138c-.342-.011-.687-.014-1.029,0a1.05,1.05,0,0,0-1.065,1.073q-.018,1.341,0,2.682a1.017,1.017,0,0,0,1.016,1.045c.394.018.791.018,1.185,0a1.027,1.027,0,0,0,.989-1.041c.007-.447,0-.895,0-1.341M2164.3,477c-.833.016-.833.024-.833-.806,0-.177,0-.353,0-.53,0-.363.009-.727,0-1.089-.006-.181.059-.223.232-.228.835-.024.835-.029.835.807,0,.529-.006,1.059,0,1.588,0,.175-.027.254-.233.258" transform="translate(-2141.572 -449.814)" fill="#fff"/>
    <path id="Path_3494" data-name="Path 3494" d="M1976.033,151.836c-.188-.178-.377-.356-.548-.55a.515.515,0,0,1,0-.729.5.5,0,0,1,.725-.044,6.229,6.229,0,0,1,.593.591.492.492,0,0,1,.068.579.564.564,0,0,1-.456.3.584.584,0,0,1-.385-.151" transform="translate(-1966.241 -147.187)" fill="#fff"/>
    <path id="Path_3495" data-name="Path 3495" d="M1985.252,202.005a.536.536,0,0,1-.011.756.517.517,0,0,1-.73.009c-.2-.179-.387-.375-.57-.573a.5.5,0,0,1-.077-.58.548.548,0,0,1,.475-.31.59.59,0,0,1,.364.147c.188.179.376.357.549.55" transform="translate(-1974.18 -194.922)" fill="#fff"/>
    <path id="Path_3496" data-name="Path 3496" d="M2019.387,176.748a.532.532,0,0,1-.751.751,6.63,6.63,0,0,1-.571-.572.5.5,0,0,1-.067-.581.542.542,0,0,1,.548-.3.418.418,0,0,1,.27.126c.2.185.4.369.572.572" transform="translate(-2006.172 -171.247)" fill="#fff"/>
    <path id="Path_3497" data-name="Path 3497" d="M2044.051,143.577c-.192-.174-.375-.36-.551-.552a.492.492,0,0,1-.094-.577.5.5,0,0,1,.507-.308.44.44,0,0,1,.331.127c.194.189.394.371.573.572a.519.519,0,0,1-.01.732.531.531,0,0,1-.757.006" transform="translate(-2029.993 -139.462)" fill="#fff"/>
    <path id="Path_3498" data-name="Path 3498" d="M2053.284,211.394a.519.519,0,0,1-.73.034,6.322,6.322,0,0,1-.591-.594.5.5,0,0,1-.059-.58.529.529,0,0,1,.53-.29.411.411,0,0,1,.287.128c.2.193.409.384.59.595a.522.522,0,0,1-.027.706" transform="translate(-2037.948 -203.035)" fill="#fff"/>
    <path id="Path_3499" data-name="Path 3499" d="M2133.8,176.486c0,.329-.237.535-.628.536-.676,0-1.352,0-2.028,0s-1.352,0-2.028,0c-.4,0-.633-.193-.642-.522s.224-.547.643-.547q2.028,0,4.056,0c.405,0,.627.2.626.532" transform="translate(-2109.784 -171.155)" fill="#fff"/>
    <path id="Path_3500" data-name="Path 3500" d="M1902.39,388.458h-10.838c-.863,0-1.262.394-1.262,1.254q0,3.279,0,6.558c0,.868.389,1.253,1.26,1.253q2.7,0,5.4,0,2.718,0,5.435,0a1.072,1.072,0,0,0,1.228-1.219q0-3.311,0-6.621a1.081,1.081,0,0,0-1.225-1.226m-10.714,1.066c1.758.009,3.517.005,5.276.005s3.537,0,5.306-.005c.227,0,.3.051.3.292-.015.884-.011,1.768,0,2.653,0,.186-.042.254-.241.251q-1.092-.017-2.185,0c-.2,0-.249-.075-.241-.256a1.806,1.806,0,0,0-.327-1.238,1.6,1.6,0,0,0-2.878.9c-.023.589-.023.589-.583.589-.472,0-.472,0-.483-.535a1.606,1.606,0,0,0-1.43-1.587,1.623,1.623,0,0,0-1.726,1.227,2.535,2.535,0,0,0-.034.683c0,.166-.06.207-.218.214-.846.042-.846.046-.846-.8,0-.7.013-1.395-.006-2.091-.007-.258.083-.307.318-.306m6.077,2.857c0-.458.179-.7.52-.706s.51.238.544.711c.036.505-.327.271-.511.329-.594-.008-.549.068-.552-.333m-3.694.333c-.569,0-.569,0-.568-.34,0-.453.179-.692.52-.7s.516.243.553.708c.041.505-.318.28-.5.332m1.558,3.739c-.582-.008-.509.068-.514-.342-.006-.463.172-.707.505-.717s.54.248.533.723c-.005.407.054.326-.524.335m4.24,0c-.186-.053-.547.176-.505-.333.038-.463.2-.731.54-.726s.532.272.527.74c-.006.381.065.312-.562.32m2.7-2.378c-.019.353,0,.708,0,1.061s-.009.729,0,1.093c.006.179-.055.249-.23.223a.271.271,0,0,0-.031,0c-.25,0-.551.079-.735-.033s-.051-.44-.075-.671a1.608,1.608,0,0,0-1.626-1.422,1.591,1.591,0,0,0-1.566,1.446c-.021.221.108.557-.079.639a2.353,2.353,0,0,1-.861.039c-.126,0-.117-.09-.119-.174a4.55,4.55,0,0,0-.017-.53,1.6,1.6,0,0,0-1.719-1.419,1.622,1.622,0,0,0-1.487,1.571c-.034.554-.034.554-.588.554-.593,0-1.187-.009-1.78.005-.211,0-.288-.044-.283-.271q.023-1.046,0-2.092c-.006-.238.066-.295.3-.294,2.415.008,4.83.005,7.245.005,1.125,0,2.249,0,3.373,0,.211,0,.295.048.283.274" transform="translate(-1886.525 -370.34)" fill="#fff"/>
    <path id="Path_3501" data-name="Path 3501" d="M2165.592,475.673c0-.426,0-.852,0-1.279a1.07,1.07,0,0,0-1.1-1.138c-.342-.011-.687-.014-1.029,0a1.05,1.05,0,0,0-1.065,1.073q-.018,1.341,0,2.682a1.017,1.017,0,0,0,1.016,1.045c.394.018.791.018,1.185,0a1.027,1.027,0,0,0,.989-1.041c.007-.447,0-.895,0-1.341M2164.3,477c-.833.016-.833.024-.833-.806,0-.177,0-.353,0-.53,0-.363.009-.727,0-1.089-.006-.181.059-.223.232-.228.835-.024.835-.029.835.807,0,.529-.006,1.059,0,1.588,0,.175-.027.254-.233.258" transform="translate(-2141.572 -449.814)" fill="#fff"/>
    <path id="Path_3502" data-name="Path 3502" d="M1976.875,151.685a.565.565,0,0,1-.456.3.584.584,0,0,1-.385-.151c-.188-.178-.377-.356-.548-.55a.515.515,0,0,1,0-.729.5.5,0,0,1,.725-.044,6.2,6.2,0,0,1,.593.591.492.492,0,0,1,.068.579" transform="translate(-1966.242 -147.188)" fill="#fff"/>
    <path id="Path_3503" data-name="Path 3503" d="M2053.284,211.394a.519.519,0,0,1-.73.034,6.322,6.322,0,0,1-.591-.594.5.5,0,0,1-.059-.58.529.529,0,0,1,.53-.29.411.411,0,0,1,.287.128c.2.193.409.384.59.595a.522.522,0,0,1-.027.706" transform="translate(-2037.948 -203.035)" fill="#fff"/>
    <path id="Path_3504" data-name="Path 3504" d="M1985.239,202.761a.517.517,0,0,1-.73.009,8.052,8.052,0,0,1-.57-.573.5.5,0,0,1-.077-.58.549.549,0,0,1,.475-.31.59.59,0,0,1,.364.147c.187.179.377.357.549.55a.536.536,0,0,1-.011.756" transform="translate(-1974.179 -194.922)" fill="#fff"/>
    <path id="Path_3505" data-name="Path 3505" d="M2019.37,177.479a.53.53,0,0,1-.733.019,6.707,6.707,0,0,1-.571-.572.5.5,0,0,1-.067-.581.542.542,0,0,1,.548-.3.418.418,0,0,1,.27.126c.2.185.395.369.572.572a.525.525,0,0,1-.018.732" transform="translate(-2006.172 -171.246)" fill="#fff"/>
    <path id="Path_3506" data-name="Path 3506" d="M2044.807,143.571a.531.531,0,0,1-.757.006c-.192-.174-.375-.36-.551-.552a.492.492,0,0,1-.094-.577.5.5,0,0,1,.507-.308.44.44,0,0,1,.331.127c.194.189.394.371.573.572a.519.519,0,0,1-.01.732" transform="translate(-2029.993 -139.462)" fill="#fff"/>
    <path id="Path_3507" data-name="Path 3507" d="M2133.8,176.486c0,.329-.237.535-.628.536-.676,0-1.352,0-2.028,0s-1.352,0-2.028,0c-.4,0-.633-.193-.642-.522s.224-.547.643-.547q2.028,0,4.056,0c.405,0,.627.2.626.532" transform="translate(-2109.784 -171.155)" fill="#fff"/>
  </g>
</svg>
