<svg xmlns="http://www.w3.org/2000/svg" width="29.985" height="28.713" viewBox="0 0 29.985 28.713">
  <g id="Icon_feather-shopping-cart" data-name="Icon feather-shopping-cart" transform="translate(-0.5 -0.5)">
    <path id="Path_3474" data-name="Path 3474" d="M14.544,31.272A1.272,1.272,0,1,1,13.272,30,1.272,1.272,0,0,1,14.544,31.272Z" transform="translate(-1.596 -4.331)" fill="none" stroke="#000" stroke-linecap="round" stroke-linejoin="round" stroke-width="2"/>
    <path id="Path_3475" data-name="Path 3475" d="M31.044,31.272A1.272,1.272,0,1,1,29.772,30,1.272,1.272,0,0,1,31.044,31.272Z" transform="translate(-4.103 -4.331)" fill="none" stroke="#000" stroke-linecap="round" stroke-linejoin="round" stroke-width="2"/>
    <path id="Path_3476" data-name="Path 3476" d="M1.5,1.5H6.588L10,18.533a2.544,2.544,0,0,0,2.544,2.048H24.905a2.544,2.544,0,0,0,2.544-2.048L29.485,7.86H7.86" fill="none" stroke="#000" stroke-linecap="round" stroke-linejoin="round" stroke-width="2"/>
  </g>
</svg>
