<svg id="Group_1073" data-name="Group 1073" xmlns="http://www.w3.org/2000/svg" xmlns:xlink="http://www.w3.org/1999/xlink" width="12.782" height="12.781" viewBox="0 0 12.782 12.781">
  <defs>
    <clipPath id="clip-path">
      <rect id="Rectangle_311" data-name="Rectangle 311" width="12.782" height="12.781"/>
    </clipPath>
  </defs>
  <g id="Group_1072" data-name="Group 1072" clip-path="url(#clip-path)">
    <path id="Path_3574" data-name="Path 3574" d="M205.141,47.9a1.6,1.6,0,1,0,1.606,1.6,1.6,1.6,0,0,0-1.606-1.6m.013,2.281a.684.684,0,1,1,.679-.681.687.687,0,0,1-.679.681" transform="translate(-195.793 -46.075)"/>
    <path id="Path_3575" data-name="Path 3575" d="M12.78,2.388A2.357,2.357,0,0,0,10.392,0q-4,0-8,0A2.37,2.37,0,0,0,0,2.388q0,2,0,4.008,0,1.982,0,3.965a2.454,2.454,0,0,0,.042.5A2.358,2.358,0,0,0,2.386,12.78q3.915,0,7.83,0a3.8,3.8,0,0,0,.426-.022A2.353,2.353,0,0,0,12.78,10.39q0-4,0-8M.914,2.436A1.452,1.452,0,0,1,2.437.914h7.915A1.451,1.451,0,0,1,11.867,2.43q0,2.988,0,5.976v.138c-.063-.013-.09-.06-.124-.094q-.934-.932-1.866-1.865a.47.47,0,0,0-.764,0c-.585.585-1.172,1.168-1.753,1.757-.086.087-.127.079-.208,0q-1.892-1.9-3.79-3.793a.478.478,0,0,0-.794,0Q1.8,5.313,1.036,6.079C1,6.111.979,6.155.928,6.168A.237.237,0,0,1,.914,6.03q0-1.8,0-3.594m1.544,9.432A1.455,1.455,0,0,1,.914,10.324c0-.9,0-1.806,0-2.709A.268.268,0,0,1,1,7.4Q1.94,6.47,2.875,5.529c.063-.063.1-.09.177-.011Q6.183,8.657,9.32,11.791c.016.016.03.034.068.077Zm9.023-.471a1.441,1.441,0,0,1-.712.423.159.159,0,0,1-.176-.044Q9.285,10.463,7.971,9.155c-.06-.059-.052-.089,0-.143Q8.7,8.289,9.426,7.56c.051-.052.081-.057.135,0q1.127,1.132,2.258,2.258a.159.159,0,0,1,.049.127c0,.095,0,.19,0,.327a1.472,1.472,0,0,1-.387,1.128" transform="translate(0 0)"/>
    <path id="Path_3576" data-name="Path 3576" d="M205.141,47.9a1.6,1.6,0,1,0,1.606,1.6,1.6,1.6,0,0,0-1.606-1.6m.013,2.281a.684.684,0,1,1,.679-.681.687.687,0,0,1-.679.681" transform="translate(-195.793 -46.075)"/>
    <path id="Path_3577" data-name="Path 3577" d="M205.141,47.9a1.6,1.6,0,1,0,1.606,1.6,1.6,1.6,0,0,0-1.606-1.6m.013,2.281a.684.684,0,1,1,.679-.681.687.687,0,0,1-.679.681" transform="translate(-195.793 -46.075)"/>
  </g>
</svg>
