<svg xmlns="http://www.w3.org/2000/svg" width="25.75" height="25.853" viewBox="0 0 25.75 25.853">
  <g id="Group_6948" data-name="Group 6948" transform="translate(-16.479 -16.359)">
    <path id="Path_3600" data-name="Path 3600" d="M23.242,29.1c.123-4.308,1-8.641,2.577-11.263a.07.07,0,0,0-.081-.1,12.943,12.943,0,0,0-9.259,11.353.069.069,0,0,0,.069.077h6.629a.068.068,0,0,0,.065-.066Z" transform="translate(0 -0.845)"/>
    <path id="Path_3601" data-name="Path 3601" d="M39.159,52.5a.07.07,0,0,0-.069.069c.2,7.393,2.511,11.9,4.19,11.9s3.99-4.5,4.19-11.9A.07.07,0,0,0,47.4,52.5Z" transform="translate(-13.928 -22.262)"/>
    <path id="Path_3602" data-name="Path 3602" d="M61.826,29.142h6.629a.073.073,0,0,0,.074-.077A12.946,12.946,0,0,0,59.266,17.7a.065.065,0,0,0-.076.1c1.571,2.634,2.45,6.967,2.573,11.275a.068.068,0,0,0,.065.066Z" transform="translate(-26.3 -0.824)"/>
    <path id="Path_3603" data-name="Path 3603" d="M43.28,16.359c-1.679,0-3.99,4.493-4.19,11.9a.074.074,0,0,0,.069.074H47.4a.074.074,0,0,0,.069-.074c-.2-7.412-2.511-11.9-4.19-11.9Z" transform="translate(-13.928)"/>
    <path id="Path_3604" data-name="Path 3604" d="M23.178,52.5H16.549a.068.068,0,0,0-.069.074A12.937,12.937,0,0,0,25.739,63.94a.069.069,0,1,0,.081-.111c-1.575-2.639-2.454-6.969-2.577-11.279a.064.064,0,0,0-.065-.05Z" transform="translate(0 -22.262)"/>
    <path id="Path_3605" data-name="Path 3605" d="M61.761,52.566c-.123,4.308-1,8.641-2.573,11.275a.065.065,0,0,0,.077.1,12.95,12.95,0,0,0,9.263-11.367.074.074,0,0,0-.069-.074H61.826a.064.064,0,0,0-.065.066Z" transform="translate(-26.299 -22.261)"/>
  </g>
</svg>
