<svg id="Group_4179" data-name="Group 4179" xmlns="http://www.w3.org/2000/svg" width="25.722" height="25.724" viewBox="0 0 25.722 25.724">
  <path id="Path_3477" data-name="Path 3477" d="M917.267,102.675a3.3,3.3,0,0,0-2.218-3.123c-.21-.074-.429-.124-.645-.184h-6.33a.408.408,0,0,1-.088.042,3.3,3.3,0,0,0-2.775,3.365q0,2.661,0,5.322a3.3,3.3,0,0,0,3.329,3.326q2.7,0,5.4,0a3.3,3.3,0,0,0,3.329-3.326q0-2.711,0-5.423m-1.606,5.319a1.725,1.725,0,0,1-1.827,1.825q-2.6,0-5.2,0a1.725,1.725,0,0,1-1.819-1.809c0-.87,0-1.74,0-2.611s0-1.724,0-2.585a1.727,1.727,0,0,1,1.84-1.838q2.586,0,5.172,0a1.723,1.723,0,0,1,1.83,1.821q0,2.6,0,5.2" transform="translate(-905.211 -99.368)" fill="#fff"/>
  <path id="Path_3478" data-name="Path 3478" d="M1120.64,101.306a3.031,3.031,0,0,0-2.41-1.907c-.1-.012-.2.025-.293-.031h-6.33a.6.6,0,0,1-.112.046,3.3,3.3,0,0,0-2.75,3.285q0,2.711,0,5.422a3.3,3.3,0,0,0,3.3,3.3q2.723.005,5.448,0a3.3,3.3,0,0,0,3.13-2.241c.069-.2.118-.414.176-.621v-6.33a3.372,3.372,0,0,0-.161-.925m-1.446,6.682a1.724,1.724,0,0,1-1.822,1.83q-2.6,0-5.2,0a1.726,1.726,0,0,1-1.823-1.829q0-2.6,0-5.2a1.723,1.723,0,0,1,1.81-1.817c.87,0,1.74,0,2.611,0s1.724,0,2.586,0a1.726,1.726,0,0,1,1.836,1.842q0,2.585,0,5.172" transform="translate(-1095.079 -99.368)" fill="#fff"/>
  <path id="Path_3479" data-name="Path 3479" d="M1120.566,308.011a6.038,6.038,0,1,0-5.241,6.89,5.865,5.865,0,0,0,5.059-4.273c.121-.358.142-.735.243-1.1v-1.206c-.067-.1-.044-.21-.061-.316m-5.983,5.34a4.421,4.421,0,1,1,4.436-4.413,4.445,4.445,0,0,1-4.436,4.413" transform="translate(-1094.905 -289.237)" fill="#fff"/>
  <path id="Path_3480" data-name="Path 3480" d="M917.262,306.15A3.3,3.3,0,0,0,914,302.886q-2.763-.006-5.525,0a3.3,3.3,0,0,0-3.264,3.265c0,.92,0,1.842,0,2.762s0,1.842,0,2.762a3.3,3.3,0,0,0,3.266,3.264q2.762.007,5.524,0a3.3,3.3,0,0,0,3.264-3.266q.007-2.761,0-5.524m-1.605,5.355a1.723,1.723,0,0,1-1.822,1.83q-2.6,0-5.2,0a1.725,1.725,0,0,1-1.823-1.829q0-2.6,0-5.2a1.722,1.722,0,0,1,1.809-1.817c.871,0,1.741,0,2.612,0s1.723,0,2.585,0a1.727,1.727,0,0,1,1.836,1.842q0,2.585,0,5.172" transform="translate(-905.208 -289.219)" fill="#fff"/>
</svg>
