<svg id="Group_4179" data-name="Group 4179" xmlns="http://www.w3.org/2000/svg" width="32.012" height="32.014" viewBox="0 0 32.012 32.014">
  <path id="Path_3477" data-name="Path 3477" d="M920.215,103.483a4.107,4.107,0,0,0-2.76-3.886c-.262-.092-.534-.154-.8-.229h-7.878a.506.506,0,0,1-.109.053,4.1,4.1,0,0,0-3.453,4.188q0,3.311,0,6.623a4.109,4.109,0,0,0,4.143,4.139q3.359.005,6.718,0a4.109,4.109,0,0,0,4.143-4.139q0-3.374,0-6.749m-2,6.619a2.147,2.147,0,0,1-2.274,2.271q-3.234,0-6.468,0a2.146,2.146,0,0,1-2.264-2.251c0-1.083,0-2.166,0-3.249s0-2.146,0-3.218a2.149,2.149,0,0,1,2.29-2.287q3.219,0,6.437,0a2.145,2.145,0,0,1,2.278,2.267q.005,3.234,0,6.468" transform="translate(-905.211 -99.368)"/>
  <path id="Path_3478" data-name="Path 3478" d="M1123.549,101.78a3.773,3.773,0,0,0-3-2.374c-.122-.015-.25.031-.364-.038h-7.878a.747.747,0,0,1-.14.058,4.108,4.108,0,0,0-3.422,4.088q0,3.374,0,6.748a4.11,4.11,0,0,0,4.11,4.109q3.389.006,6.78,0a4.112,4.112,0,0,0,3.9-2.789c.086-.253.147-.515.219-.773v-7.878a4.2,4.2,0,0,0-.2-1.151m-1.8,8.315a2.146,2.146,0,0,1-2.268,2.278q-3.233,0-6.468,0a2.148,2.148,0,0,1-2.269-2.276q0-3.235,0-6.468a2.144,2.144,0,0,1,2.253-2.261c1.083,0,2.166,0,3.25,0s2.146,0,3.219,0a2.148,2.148,0,0,1,2.285,2.292q0,3.217,0,6.436" transform="translate(-1091.738 -99.368)"/>
  <path id="Path_3479" data-name="Path 3479" d="M1123.5,309.261a7.514,7.514,0,1,0-6.522,8.575,7.3,7.3,0,0,0,6.3-5.317c.15-.445.177-.915.3-1.364v-1.5c-.084-.12-.055-.261-.076-.393m-7.446,6.646a5.5,5.5,0,1,1,5.521-5.492,5.532,5.532,0,0,1-5.521,5.492" transform="translate(-1091.566 -285.895)"/>
  <path id="Path_3480" data-name="Path 3480" d="M920.21,306.948a4.107,4.107,0,0,0-4.062-4.062q-3.438-.008-6.876,0a4.111,4.111,0,0,0-4.063,4.063c0,1.146,0,2.292,0,3.438s0,2.292,0,3.437a4.113,4.113,0,0,0,4.064,4.062q3.438.009,6.875,0a4.109,4.109,0,0,0,4.062-4.064q.009-3.437,0-6.875m-2,6.664a2.145,2.145,0,0,1-2.268,2.277q-3.233,0-6.468,0a2.147,2.147,0,0,1-2.27-2.276q0-3.234,0-6.468a2.143,2.143,0,0,1,2.252-2.261c1.084,0,2.167,0,3.25,0s2.145,0,3.218,0a2.149,2.149,0,0,1,2.285,2.292q0,3.217,0,6.436" transform="translate(-905.208 -285.878)"/>
</svg>
