<svg xmlns="http://www.w3.org/2000/svg" width="26.333" height="27.501" viewBox="0 0 26.333 27.501">
  <path id="Path_3591" data-name="Path 3591" d="M20.222,7.131h2.067a1.2,1.2,0,0,1,1.2,1.2V18.825h1.859a.8.8,0,0,1-.021-.183V12.986a.829.829,0,0,1,.826-.827h5.765a.83.83,0,0,1,.827.827v5.656a.822.822,0,0,1-.243.583c-.019.019-.038.036-.058.053a1.265,1.265,0,0,1,.3.818V30.7a1.273,1.273,0,0,1-1.271,1.27H20.666A1.273,1.273,0,0,1,19.4,30.7V28H7.912a1.2,1.2,0,0,1-1.2-1.2V8.332a1.2,1.2,0,0,1,1.2-1.2H9.98v0a1.2,1.2,0,0,1,1.2-1.2h.437a.541.541,0,0,0,.524-.364,1.215,1.215,0,0,1,.442-.574,1.188,1.188,0,0,1,.687-.218h3.768a1.189,1.189,0,0,1,1.126.789.575.575,0,0,0,.206.269.564.564,0,0,0,.319.1h.331a1.2,1.2,0,0,1,1.2,1.2ZM30.438,12.8v2.471a.322.322,0,0,1-.524.249l-.88-.638-.891.648a.321.321,0,0,1-.509-.26V12.8H26.154a.182.182,0,0,0-.184.183v5.656a.184.184,0,0,0,.054.129.189.189,0,0,0,.13.054h5.765a.187.187,0,0,0,.183-.183V12.986a.183.183,0,0,0-.183-.183Zm-.641,0H28.278v1.841l.566-.411h0a.323.323,0,0,1,.381,0l.572.415ZM10.234,23.613a.32.32,0,0,1,.48-.422l.248.282.7-.7a.322.322,0,1,1,.455.456l-.938.936-.015.015a.322.322,0,0,1-.452-.032Zm0-4.916h0a.314.314,0,0,1-.082-.233.322.322,0,0,1,.108-.223.318.318,0,0,1,.235-.078.314.314,0,0,1,.22.112l.248.281.7-.7a.321.321,0,0,1,.455.455l-.937.937a.094.094,0,0,1-.015.015.32.32,0,0,1-.452-.032Zm0-4.917a.32.32,0,1,1,.48-.423l.248.281.7-.7h0a.321.321,0,1,1,.455.453l-.937.938v0a.094.094,0,0,1-.015.015.318.318,0,0,1-.452-.032Zm18.186,5.687v4.916a.322.322,0,0,1-.524.25l-1.824-1.325-1.839,1.334a.321.321,0,0,1-.509-.26h0V19.467H20.666a.628.628,0,0,0-.443.184.648.648,0,0,0-.159.268.658.658,0,0,0-.023.173V30.7a.628.628,0,0,0,.626.627H31.474A.626.626,0,0,0,32.1,30.7V20.094a.629.629,0,0,0-.627-.627Zm-.644,0h-3.41v4.286l1.512-1.1a.321.321,0,0,1,.382,0l1.516,1.1Zm-4.929-.641V8.331a.555.555,0,0,0-.558-.557H20.222v.464a1.2,1.2,0,0,1-1.2,1.2H11.18a1.2,1.2,0,0,1-1.2-1.2V7.775H7.912a.555.555,0,0,0-.559.557V26.8a.558.558,0,0,0,.558.557H19.4V25.072H15.584a.321.321,0,0,1,0-.642H19.4V22.516H15.584a.321.321,0,1,1,0-.641H19.4V20.154H15.584a.322.322,0,0,1-.234-.552.327.327,0,0,1,.234-.09h3.957a1.266,1.266,0,0,1,1.126-.686ZM9.574,21.545h3.21a.322.322,0,0,1,.322.322V25.08a.321.321,0,0,1-.322.321H9.574a.323.323,0,0,1-.323-.321V21.867a.323.323,0,0,1,.322-.322Zm2.888.644H9.895v2.569h2.568ZM15.585,17.6h0a.321.321,0,0,1,0-.641h5.043a.321.321,0,0,1,0,.641Zm-6.01-.971h3.21a.322.322,0,0,1,.322.321V20.16a.319.319,0,0,1-.322.321H9.574a.321.321,0,0,1-.228-.093.329.329,0,0,1-.1-.228V16.949a.326.326,0,0,1,.1-.227.322.322,0,0,1,.228-.094Zm2.888.642H9.9v2.568h2.568Zm3.122-2.036a.321.321,0,1,1,0-.641h5.043a.321.321,0,1,1,0,.641Zm0-2.552a.322.322,0,1,1,0-.644h5.043a.322.322,0,0,1,0,.644Zm-6.01-.971h3.21a.322.322,0,0,1,.322.322v3.21a.322.322,0,0,1-.322.322H9.575a.323.323,0,0,1-.323-.322v-3.21a.322.322,0,0,1,.322-.322Zm2.888.641H9.9v2.569h2.568Zm-.846-5.783H11.18a.559.559,0,0,0-.557.557V8.239a.559.559,0,0,0,.557.557h7.841a.559.559,0,0,0,.557-.557V7.126a.559.559,0,0,0-.557-.557H18.69a1.211,1.211,0,0,1-1.129-.793.541.541,0,0,0-.524-.364H13.27a.565.565,0,0,0-.321.1.572.572,0,0,0-.206.268,1.186,1.186,0,0,1-1.126.79Z" transform="translate(-6.562 -4.619)" fill="#fff" stroke="#fff" stroke-width="0.3"/>
</svg>
