<svg xmlns="http://www.w3.org/2000/svg" width="31.035" height="32.414" viewBox="0 0 31.035 32.414">
  <path id="Path_3591" data-name="Path 3591" d="M22.662,7.558H25.1A1.42,1.42,0,0,1,26.52,8.975V21.364h2.2a.941.941,0,0,1-.025-.216V14.47a.978.978,0,0,1,.975-.976h6.806a.979.979,0,0,1,.976.976v6.677a.971.971,0,0,1-.287.688c-.022.022-.044.043-.068.062a1.494,1.494,0,0,1,.355.965V35.384a1.5,1.5,0,0,1-1.5,1.5H23.186a1.5,1.5,0,0,1-1.5-1.5V32.2H8.129a1.42,1.42,0,0,1-1.417-1.416V8.975A1.42,1.42,0,0,1,8.129,7.558H10.57V7.552a1.42,1.42,0,0,1,1.417-1.417H12.5a.639.639,0,0,0,.618-.43,1.435,1.435,0,0,1,.521-.678,1.4,1.4,0,0,1,.811-.258H18.9a1.4,1.4,0,0,1,1.33.932.679.679,0,0,0,.243.318.666.666,0,0,0,.377.116h.391a1.42,1.42,0,0,1,1.417,1.417Zm12.062,6.7v2.918a.38.38,0,0,1-.618.294l-1.039-.753-1.053.765a.379.379,0,0,1-.6-.306V14.254H29.665a.215.215,0,0,0-.218.216v6.677a.218.218,0,0,0,.064.153.223.223,0,0,0,.154.064h6.806a.22.22,0,0,0,.216-.216V14.471a.217.217,0,0,0-.216-.216Zm-.757,0H32.174v2.173l.668-.485h0a.381.381,0,0,1,.449,0l.675.49ZM10.87,27.016a.377.377,0,0,1,.567-.5l.293.333.822-.822a.38.38,0,1,1,.537.538L11.98,27.672l-.018.018a.381.381,0,0,1-.534-.037Zm0-5.8h0a.371.371,0,0,1-.1-.275.38.38,0,0,1,.128-.263.375.375,0,0,1,.277-.092.37.37,0,0,1,.259.132l.293.331.822-.822a.379.379,0,1,1,.537.537l-1.107,1.107a.111.111,0,0,1-.018.018.378.378,0,0,1-.534-.037Zm0-5.805a.378.378,0,1,1,.567-.5l.293.331.822-.822h0a.379.379,0,1,1,.537.535l-1.107,1.108v0a.111.111,0,0,1-.018.018.376.376,0,0,1-.534-.037ZM32.34,22.122v5.8a.38.38,0,0,1-.618.3l-2.154-1.564L27.4,28.232a.379.379,0,0,1-.6-.306h0v-5.8H23.186a.741.741,0,0,0-.523.218.765.765,0,0,0-.187.316.777.777,0,0,0-.028.2V35.383a.742.742,0,0,0,.739.741H35.947a.739.739,0,0,0,.741-.741V22.863a.742.742,0,0,0-.74-.74Zm-.76,0H27.554v5.06l1.785-1.294a.379.379,0,0,1,.451-.006l1.79,1.3Zm-5.819-.757V8.975a.656.656,0,0,0-.659-.657H22.662v.548a1.418,1.418,0,0,1-1.417,1.416H11.987A1.418,1.418,0,0,1,10.57,8.865V8.318H8.129a.656.656,0,0,0-.66.657V30.784a.659.659,0,0,0,.659.657H21.687v-2.7h-4.5a.379.379,0,0,1,0-.759h4.5V25.721h-4.5a.379.379,0,0,1,0-.757h4.5V22.932h-4.5a.38.38,0,0,1-.276-.652.386.386,0,0,1,.276-.107h4.672a1.5,1.5,0,0,1,1.33-.81Zm-15.67,3.21h3.79a.38.38,0,0,1,.38.38v3.793a.379.379,0,0,1-.38.379h-3.79a.381.381,0,0,1-.381-.379V24.955a.381.381,0,0,1,.38-.38Zm3.41.76H10.47v3.033H13.5Zm3.686-5.418h0a.379.379,0,0,1,0-.757h5.953a.379.379,0,0,1,0,.757Zm-7.1-1.147h3.79a.38.38,0,0,1,.38.379V22.94a.376.376,0,0,1-.38.379h-3.79a.379.379,0,0,1-.269-.11.388.388,0,0,1-.112-.269V19.149a.385.385,0,0,1,.112-.268.38.38,0,0,1,.269-.111Zm3.41.759H10.47V22.56H13.5Zm3.686-2.4a.379.379,0,1,1,0-.757h5.953a.379.379,0,0,1,0,.757Zm0-3.013a.38.38,0,1,1,0-.76h5.953a.38.38,0,0,1,0,.76Zm-7.1-1.147h3.79a.38.38,0,0,1,.38.38v3.79a.38.38,0,0,1-.38.38h-3.79a.381.381,0,0,1-.381-.38v-3.79a.381.381,0,0,1,.38-.38Zm3.41.757H10.47v3.033H13.5Zm-1-6.828h-.516a.661.661,0,0,0-.657.657V8.865a.66.66,0,0,0,.657.657h9.258a.66.66,0,0,0,.657-.657V7.552a.661.661,0,0,0-.657-.657h-.391a1.43,1.43,0,0,1-1.333-.936.639.639,0,0,0-.618-.43H14.454a.667.667,0,0,0-.379.116.676.676,0,0,0-.243.316,1.4,1.4,0,0,1-1.33.933Z" transform="translate(-6.562 -4.619)" fill="#1a1818" stroke="#1a1818" stroke-width="0.3"/>
</svg>
