<svg xmlns="http://www.w3.org/2000/svg" width="27.67" height="22.708" viewBox="0 0 27.67 22.708">
  <g id="Group" transform="translate(-3.394 -13.6)">
    <path id="Compound_Path" data-name="Compound Path" d="M9.513,24.33a3.114,3.114,0,0,0-3.329-2.605,3.263,3.263,0,0,0,0,6.458,3.114,3.114,0,0,0,3.329-2.605h3.8l9.236,9.483H18.541a.625.625,0,0,0,0,1.248h5.464a.609.609,0,0,0,.594-.624V29.945a.595.595,0,1,0-1.188,0v4.242l-8.4-8.609H29.054L26.2,28.572a.64.64,0,0,0-.224.632.61.61,0,0,0,.454.477.58.58,0,0,0,.6-.235l3.861-4.055a.647.647,0,0,0,0-.873l-3.861-4.055a.573.573,0,0,0-.776.058.647.647,0,0,0-.055.815l2.851,2.994H14.977l8.4-8.609v4.242a.595.595,0,1,0,1.188,0V14.224a.609.609,0,0,0-.594-.624H18.511a.625.625,0,0,0,0,1.248H22.52L13.285,24.33ZM6.484,26.95a2,2,0,0,1,0-3.993,2,2,0,0,1,0,3.993Z" transform="translate(0 0)" fill="#fff"/>
  </g>
</svg>
