<svg xmlns="http://www.w3.org/2000/svg" width="31.399" height="32.014" viewBox="0 0 31.399 32.014">
  <path id="Path_3589" data-name="Path 3589" d="M36.953,26.676l.014-15.114A2.516,2.516,0,0,0,34.457,9.05H30.24V8.181a1.661,1.661,0,0,0-1.659-1.659h-.229a1.661,1.661,0,0,0-1.659,1.659V9.05H23.925V8.31a1.661,1.661,0,0,0-1.659-1.659h-.228A1.661,1.661,0,0,0,20.38,8.31v.74H17.611V8.181a1.661,1.661,0,0,0-1.659-1.659h-.228a1.661,1.661,0,0,0-1.659,1.659V9.05H9.849a2.514,2.514,0,0,0-2.511,2.511V33.011a2.514,2.514,0,0,0,2.511,2.511H25.678a.483.483,0,0,0,.085-.009,7.14,7.14,0,1,0,11.191-8.837Zm-9.227-18.5a.627.627,0,0,1,.626-.626h.229a.627.627,0,0,1,.626.626v2.513a.627.627,0,0,1-.626.626h-.228a.627.627,0,0,1-.626-.626V8.181Zm-6.314.129a.627.627,0,0,1,.626-.626h.228a.627.627,0,0,1,.626.626v2.514a.627.627,0,0,1-.626.626h-.228a.627.627,0,0,1-.626-.626ZM15.1,8.181a.627.627,0,0,1,.626-.626h.228a.627.627,0,0,1,.626.626v2.513a.651.651,0,0,1-.01.1c0,.008,0,.016,0,.024a.627.627,0,0,1-.613.5h-.228a.627.627,0,0,1-.626-.626V8.181Zm-5.249,1.9h4.216v.612h0a1.661,1.661,0,0,0,1.659,1.659h.228a1.661,1.661,0,0,0,1.659-1.659h0v-.612h2.768v.74a1.661,1.661,0,0,0,1.659,1.659h.228a1.661,1.661,0,0,0,1.659-1.659v-.74h2.768v.612h0a1.661,1.661,0,0,0,1.659,1.659h.229a1.661,1.661,0,0,0,1.659-1.659h0v-.612h4.216a1.483,1.483,0,0,1,1.478,1.478l0,4.165H8.371V11.561A1.48,1.48,0,0,1,9.849,10.083Zm0,24.406a1.48,1.48,0,0,1-1.478-1.478V16.758H35.93l-.009,8.955a7.123,7.123,0,0,0-8.984.266V24.406a1.148,1.148,0,0,0-1.146-1.146H23.863a1.148,1.148,0,0,0-1.146,1.146v1.927a1.148,1.148,0,0,0,1.146,1.146h1.755a7.13,7.13,0,0,0-.463,7.009H9.849Zm15.942-8.042H23.863a.115.115,0,0,1-.113-.113V24.406a.115.115,0,0,1,.113-.113h1.927a.115.115,0,0,1,.113.113v1.927A.115.115,0,0,1,25.791,26.447Zm5.8,11.056A6.112,6.112,0,1,1,37.7,31.391,6.119,6.119,0,0,1,31.593,37.5Zm2.317-7.949a.517.517,0,0,1,0,.73l-2.61,2.61a.516.516,0,0,1-.7.031L29.145,31.71a.516.516,0,0,1,.661-.793l1.1.914,2.277-2.277A.517.517,0,0,1,33.91,29.554ZM20.074,18.188H18.146A1.147,1.147,0,0,0,17,19.334v1.927a1.147,1.147,0,0,0,1.146,1.146h1.927a1.148,1.148,0,0,0,1.146-1.146V19.334A1.148,1.148,0,0,0,20.074,18.188Zm.113,3.073a.115.115,0,0,1-.113.113H18.146a.115.115,0,0,1-.113-.113V19.334a.115.115,0,0,1,.113-.113h1.927a.115.115,0,0,1,.113.113Zm3.676,1.146h1.927a1.148,1.148,0,0,0,1.146-1.146V19.333a1.147,1.147,0,0,0-1.146-1.146H23.864a1.147,1.147,0,0,0-1.146,1.146v1.927A1.147,1.147,0,0,0,23.864,22.407Zm-.113-3.073a.115.115,0,0,1,.113-.113h1.927a.115.115,0,0,1,.113.113v1.927a.115.115,0,0,1-.113.113H23.864a.115.115,0,0,1-.113-.113V19.334Zm5.83,3.073h1.927a1.148,1.148,0,0,0,1.146-1.146V19.333a1.147,1.147,0,0,0-1.146-1.146H29.581a1.147,1.147,0,0,0-1.146,1.146v1.927A1.148,1.148,0,0,0,29.581,22.407Zm-.113-3.073a.115.115,0,0,1,.113-.113h1.927a.115.115,0,0,1,.113.113v1.927a.115.115,0,0,1-.113.113H29.581a.115.115,0,0,1-.113-.113ZM14.357,23.26H12.43a1.147,1.147,0,0,0-1.146,1.146v1.927A1.147,1.147,0,0,0,12.43,27.48h1.927A1.148,1.148,0,0,0,15.5,26.334V24.407A1.148,1.148,0,0,0,14.357,23.26Zm.113,3.073a.115.115,0,0,1-.113.113H12.43a.115.115,0,0,1-.113-.113V24.406a.115.115,0,0,1,.113-.113h1.927a.115.115,0,0,1,.113.113Zm5.6-3.073H18.146A1.147,1.147,0,0,0,17,24.407v1.927a1.147,1.147,0,0,0,1.146,1.146h1.927a1.148,1.148,0,0,0,1.146-1.146V24.407A1.148,1.148,0,0,0,20.074,23.26Zm.113,3.073a.115.115,0,0,1-.113.113H18.146a.115.115,0,0,1-.113-.113V24.406a.115.115,0,0,1,.113-.113h1.927a.115.115,0,0,1,.113.113Zm-5.83,2H12.43a1.147,1.147,0,0,0-1.146,1.146v1.927a1.147,1.147,0,0,0,1.146,1.146h1.927A1.148,1.148,0,0,0,15.5,31.406V29.479A1.148,1.148,0,0,0,14.357,28.333Zm.113,3.073a.115.115,0,0,1-.113.113H12.43a.115.115,0,0,1-.113-.113V29.479a.115.115,0,0,1,.113-.113h1.927a.115.115,0,0,1,.113.113Zm5.6-3.073H18.146A1.147,1.147,0,0,0,17,29.479v1.927a1.147,1.147,0,0,0,1.146,1.146h1.927a1.148,1.148,0,0,0,1.146-1.146V29.479A1.148,1.148,0,0,0,20.074,28.333Zm.113,3.073a.115.115,0,0,1-.113.113H18.146a.115.115,0,0,1-.113-.113V29.479a.115.115,0,0,1,.113-.113h1.927a.115.115,0,0,1,.113.113Zm-5.83-13.218H12.43a1.147,1.147,0,0,0-1.146,1.146v1.927a1.147,1.147,0,0,0,1.146,1.146h1.927A1.148,1.148,0,0,0,15.5,21.261V19.334A1.148,1.148,0,0,0,14.357,18.188Zm.113,3.073a.115.115,0,0,1-.113.113H12.43a.115.115,0,0,1-.113-.113V19.334a.115.115,0,0,1,.113-.113h1.927a.115.115,0,0,1,.113.113Z" transform="translate(-7.338 -6.522)"/>
</svg>
