<svg xmlns="http://www.w3.org/2000/svg" width="28.64" height="29.201" viewBox="0 0 28.64 29.201">
  <path id="Path_3589" data-name="Path 3589" d="M34.351,24.906l.013-13.787a2.295,2.295,0,0,0-2.29-2.291H28.228V8.035a1.515,1.515,0,0,0-1.513-1.513h-.209a1.515,1.515,0,0,0-1.513,1.513v.793H22.468V8.153A1.515,1.515,0,0,0,20.955,6.64h-.208a1.515,1.515,0,0,0-1.513,1.513v.675H16.709V8.035A1.515,1.515,0,0,0,15.2,6.522h-.208a1.515,1.515,0,0,0-1.513,1.513v.793H9.628a2.293,2.293,0,0,0-2.29,2.291V30.684a2.293,2.293,0,0,0,2.29,2.29H24.067a.44.44,0,0,0,.077-.008,6.513,6.513,0,1,0,10.208-8.06ZM25.935,8.035a.572.572,0,0,1,.571-.571h.209a.572.572,0,0,1,.571.571v2.293a.572.572,0,0,1-.571.571h-.208a.572.572,0,0,1-.571-.571V8.035Zm-5.76.118a.572.572,0,0,1,.571-.571h.208a.572.572,0,0,1,.571.571v2.293a.572.572,0,0,1-.571.571h-.208a.572.572,0,0,1-.571-.571Zm-5.76-.118a.572.572,0,0,1,.571-.571H15.2a.572.572,0,0,1,.571.571v2.293a.594.594,0,0,1-.009.093c0,.007,0,.015,0,.022a.572.572,0,0,1-.56.456h-.208a.572.572,0,0,1-.571-.571V8.035ZM9.628,9.77h3.846v.558h0a1.515,1.515,0,0,0,1.513,1.513H15.2a1.515,1.515,0,0,0,1.513-1.513h0V9.77h2.525v.675a1.515,1.515,0,0,0,1.513,1.513h.208a1.515,1.515,0,0,0,1.513-1.513V9.77h2.525v.558h0a1.515,1.515,0,0,0,1.513,1.513h.209a1.515,1.515,0,0,0,1.513-1.513h0V9.77h3.846a1.353,1.353,0,0,1,1.348,1.348l0,3.8H8.28v-3.8A1.35,1.35,0,0,1,9.628,9.77Zm0,22.262A1.35,1.35,0,0,1,8.28,30.684V15.859H33.418l-.008,8.168a6.5,6.5,0,0,0-8.2.243V22.835a1.047,1.047,0,0,0-1.046-1.046H22.412a1.047,1.047,0,0,0-1.046,1.046v1.758a1.047,1.047,0,0,0,1.046,1.046h1.6a6.5,6.5,0,0,0-.423,6.394H9.628ZM24.17,24.7H22.412a.1.1,0,0,1-.1-.1V22.835a.1.1,0,0,1,.1-.1H24.17a.1.1,0,0,1,.1.1v1.758A.1.1,0,0,1,24.17,24.7Zm5.292,10.085a5.575,5.575,0,1,1,5.575-5.575A5.581,5.581,0,0,1,29.462,34.781Zm2.114-7.25a.471.471,0,0,1,0,.666l-2.381,2.381a.471.471,0,0,1-.635.029L27.23,29.5a.471.471,0,0,1,.6-.724l1,.834,2.077-2.077A.471.471,0,0,1,31.576,27.531ZM18.955,17.163H17.2a1.046,1.046,0,0,0-1.045,1.045v1.758A1.047,1.047,0,0,0,17.2,21.012h1.758A1.047,1.047,0,0,0,20,19.966V18.208A1.047,1.047,0,0,0,18.955,17.163Zm.1,2.8a.1.1,0,0,1-.1.1H17.2a.1.1,0,0,1-.1-.1V18.208a.1.1,0,0,1,.1-.1h1.758a.1.1,0,0,1,.1.1Zm3.353,1.045H24.17a1.047,1.047,0,0,0,1.046-1.046V18.208a1.046,1.046,0,0,0-1.046-1.045H22.412a1.047,1.047,0,0,0-1.046,1.045v1.758A1.047,1.047,0,0,0,22.412,21.012Zm-.1-2.8a.1.1,0,0,1,.1-.1H24.17a.1.1,0,0,1,.1.1v1.758a.1.1,0,0,1-.1.1H22.412a.1.1,0,0,1-.1-.1V18.208Zm5.318,2.8h1.758a1.047,1.047,0,0,0,1.046-1.046V18.208a1.046,1.046,0,0,0-1.046-1.045H27.627a1.047,1.047,0,0,0-1.046,1.045v1.758A1.047,1.047,0,0,0,27.627,21.012Zm-.1-2.8a.1.1,0,0,1,.1-.1h1.758a.1.1,0,0,1,.1.1v1.758a.1.1,0,0,1-.1.1H27.627a.1.1,0,0,1-.1-.1ZM13.741,21.79H11.982a1.046,1.046,0,0,0-1.045,1.046v1.758a1.047,1.047,0,0,0,1.045,1.046h1.758a1.047,1.047,0,0,0,1.046-1.046V22.835A1.047,1.047,0,0,0,13.741,21.79Zm.1,2.8a.1.1,0,0,1-.1.1H11.982a.1.1,0,0,1-.1-.1V22.835a.1.1,0,0,1,.1-.1h1.758a.1.1,0,0,1,.1.1Zm5.111-2.8H17.2a1.046,1.046,0,0,0-1.045,1.046v1.758A1.047,1.047,0,0,0,17.2,25.639h1.758A1.047,1.047,0,0,0,20,24.594V22.835A1.047,1.047,0,0,0,18.955,21.79Zm.1,2.8a.1.1,0,0,1-.1.1H17.2a.1.1,0,0,1-.1-.1V22.835a.1.1,0,0,1,.1-.1h1.758a.1.1,0,0,1,.1.1Zm-5.318,1.824H11.982a1.046,1.046,0,0,0-1.045,1.045V29.22a1.047,1.047,0,0,0,1.045,1.046h1.758a1.047,1.047,0,0,0,1.046-1.046V27.462A1.047,1.047,0,0,0,13.741,26.417Zm.1,2.8a.1.1,0,0,1-.1.1H11.982a.1.1,0,0,1-.1-.1V27.462a.1.1,0,0,1,.1-.1h1.758a.1.1,0,0,1,.1.1Zm5.111-2.8H17.2a1.046,1.046,0,0,0-1.045,1.045V29.22A1.047,1.047,0,0,0,17.2,30.266h1.758A1.047,1.047,0,0,0,20,29.22V27.462A1.047,1.047,0,0,0,18.955,26.417Zm.1,2.8a.1.1,0,0,1-.1.1H17.2a.1.1,0,0,1-.1-.1V27.462a.1.1,0,0,1,.1-.1h1.758a.1.1,0,0,1,.1.1ZM13.741,17.163H11.982a1.046,1.046,0,0,0-1.045,1.045v1.758a1.047,1.047,0,0,0,1.045,1.046h1.758a1.047,1.047,0,0,0,1.046-1.046V18.208A1.047,1.047,0,0,0,13.741,17.163Zm.1,2.8a.1.1,0,0,1-.1.1H11.982a.1.1,0,0,1-.1-.1V18.208a.1.1,0,0,1,.1-.1h1.758a.1.1,0,0,1,.1.1Z" transform="translate(-7.338 -6.522)" fill="#fff"/>
</svg>
