<svg xmlns="http://www.w3.org/2000/svg" width="23.669" height="23.669" viewBox="0 0 23.669 23.669">
  <path id="Path_3606" data-name="Path 3606" d="M32,10H11.664A1.665,1.665,0,0,0,10,11.664V28.4a1.666,1.666,0,0,0,1.664,1.663h9.5l1,1.722a3.678,3.678,0,0,0,3.258,1.882h1.836a3.766,3.766,0,0,0,3.758-3.6H32A1.665,1.665,0,0,0,33.669,28.4V11.663A1.666,1.666,0,0,0,32,10Zm-20.34,1.144H32a.519.519,0,0,1,.519.518v2.506H11.145V11.664a.519.519,0,0,1,.519-.518ZM29.87,29.906a2.619,2.619,0,0,1-2.617,2.617H25.417a2.559,2.559,0,0,1-2.266-1.308l-2.063-3.571a.843.843,0,0,1,.6-.069.755.755,0,0,1,.467.366l.921,1.594a.572.572,0,0,0,1.068-.285v-6.4a.3.3,0,1,1,.606,0v4.828a.572.572,0,0,0,1.144,0v-1.7a.3.3,0,0,1,.606,0v1.7a.572.572,0,0,0,1.144,0V26.293a.3.3,0,1,1,.607,0v1.385a.572.572,0,0,0,1.144,0v-.915a.235.235,0,1,1,.469,0v3.145Zm-3.972-6.3v-.76a1.448,1.448,0,1,0-2.9,0v.815H18.178a1.546,1.546,0,0,1,0-3.093H25.49a1.546,1.546,0,0,1,.407,3.038ZM32,28.919h-.989V26.76a1.38,1.38,0,0,0-1.871-1.291,1.447,1.447,0,0,0-1.866-.461,1.452,1.452,0,0,0-.7-.431,2.692,2.692,0,0,0-1.086-5.154H18.179a2.692,2.692,0,0,0,0,5.383H23v2.338a1.9,1.9,0,0,0-1.014-.68,1.984,1.984,0,0,0-1.519.208,1.093,1.093,0,0,0-.4,1.493l.433.75-8.839,0a.519.519,0,0,1-.519-.518V15.315H32.524V28.4A.519.519,0,0,1,32,28.92ZM13.1,12.658a.572.572,0,1,1,.572.572A.574.574,0,0,1,13.1,12.658Zm1.794,0a.573.573,0,1,1,.572.572A.574.574,0,0,1,14.889,12.658Zm1.794,0a.573.573,0,1,1,.572.572A.574.574,0,0,1,16.682,12.658Zm3.325,0a.572.572,0,0,1,.572-.572H30a.572.572,0,1,1,0,1.144H20.579A.572.572,0,0,1,20.007,12.658Zm2.4,9.458a.572.572,0,0,1-.572.572H18.549a.572.572,0,1,1,0-1.144h3.286A.572.572,0,0,1,22.406,22.116Z" transform="translate(-10 -10)"/>
</svg>
