<svg id="Group_4050" data-name="Group 4050" xmlns="http://www.w3.org/2000/svg" xmlns:xlink="http://www.w3.org/1999/xlink" width="26.718" height="26.713" viewBox="0 0 26.718 26.713">
  <defs>
    <clipPath id="clip-path">
      <rect id="Rectangle_19" data-name="Rectangle 19" width="26.718" height="26.713" fill="none"/>
    </clipPath>
  </defs>
  <g id="Group_4049" data-name="Group 4049" clip-path="url(#clip-path)">
    <path id="Path_3187" data-name="Path 3187" d="M26.693,12.153a10.56,10.56,0,0,0-.129-1.562,13.277,13.277,0,0,0-4.349-7.412A13,13,0,0,0,17.263.439,8.21,8.21,0,0,0,15.616.085C15.13.044,14.641.044,14.155,0H12.592a1.142,1.142,0,0,1-.41.025,11.348,11.348,0,0,0-1.548.127A12.624,12.624,0,0,0,7.342,1.285,13.281,13.281,0,0,0,3.017,4.737,12.341,12.341,0,0,0,0,12.823a22.542,22.542,0,0,0,.1,2.732A11.927,11.927,0,0,0,1.464,19.66a13.578,13.578,0,0,0,2.725,3.529,13.31,13.31,0,0,0,4.6,2.832,11.024,11.024,0,0,0,3.67.679,22.634,22.634,0,0,0,3.158-.089,12.06,12.06,0,0,0,4.261-1.464,13.5,13.5,0,0,0,3.664-2.97A13.022,13.022,0,0,0,26.258,17.3a8.31,8.31,0,0,0,.367-1.705c.041-.488.041-.978.092-1.466V12.562a1.152,1.152,0,0,1-.025-.409m-5.9,10.329a11.726,11.726,0,0,1-5.978,2.544c-.484.061-.969.07-1.372.1a11.845,11.845,0,0,1-7.49-2.641.242.242,0,0,1-.111-.259A7.6,7.6,0,0,1,20.9,22.2a.259.259,0,0,1-.105.285M9.318,10.008a4.055,4.055,0,1,1,4.056,4.036,4.072,4.072,0,0,1-4.056-4.036M22.276,21.024a9.291,9.291,0,0,0-5.722-6.378A5.626,5.626,0,1,0,9.433,5.991a5.675,5.675,0,0,0,.775,8.669,9.264,9.264,0,0,0-3.655,2.482,9.116,9.116,0,0,0-2.067,3.87A11.753,11.753,0,0,1,21.3,4.64a11.731,11.731,0,0,1,.98,16.384" transform="translate(0)"/>
  </g>
</svg>
