<svg id="Group_4180" data-name="Group 4180" xmlns="http://www.w3.org/2000/svg" width="31.501" height="32.014" viewBox="0 0 31.501 32.014">
  <path id="Path_3481" data-name="Path 3481" d="M28.914,24.11a4.117,4.117,0,0,0-3.142-3.46,14.869,14.869,0,0,0-2.322-.087H21.435c-.5,0-.694.117-.686.423.008.29.2.4.67.406h.262c1.086,0,2.172-.014,3.258.006a3.039,3.039,0,0,1,2.5,1.289,2.953,2.953,0,0,1,.641,1.647c.013.268.142.466.441.448.313-.02.416-.234.4-.521,0-.05,0-.1-.008-.15m0,0a4.117,4.117,0,0,0-3.142-3.46,14.869,14.869,0,0,0-2.322-.087H21.435c-.5,0-.694.117-.686.423.008.29.2.4.67.406h.262c1.086,0,2.172-.014,3.258.006a3.039,3.039,0,0,1,2.5,1.289,2.953,2.953,0,0,1,.641,1.647c.013.268.142.466.441.448.313-.02.416-.234.4-.521,0-.05,0-.1-.008-.15m-23.123.516a2.273,2.273,0,1,0,2.262,2.3,2.254,2.254,0,0,0-2.262-2.3M5.775,28.31a1.425,1.425,0,0,1-1.42-1.429A1.445,1.445,0,0,1,5.8,25.467,1.427,1.427,0,0,1,7.21,26.906a1.405,1.405,0,0,1-1.435,1.4m23.139-4.2a4.117,4.117,0,0,0-3.142-3.46,14.869,14.869,0,0,0-2.322-.087H21.435c-.5,0-.694.117-.686.423.008.29.2.4.67.406h.262c1.086,0,2.172-.014,3.258.006a3.039,3.039,0,0,1,2.5,1.289,2.953,2.953,0,0,1,.641,1.647c.013.268.142.466.441.448.313-.02.416-.234.4-.521,0-.05,0-.1-.008-.15m0,0a4.117,4.117,0,0,0-3.142-3.46,14.869,14.869,0,0,0-2.322-.087H21.435c-.5,0-.694.117-.686.423.008.29.2.4.67.406h.262c1.086,0,2.172-.014,3.258.006a3.039,3.039,0,0,1,2.5,1.289,2.953,2.953,0,0,1,.641,1.647c.013.268.142.466.441.448.313-.02.416-.234.4-.521,0-.05,0-.1-.008-.15m-23.123.516a2.273,2.273,0,1,0,2.262,2.3,2.254,2.254,0,0,0-2.262-2.3M5.775,28.31a1.425,1.425,0,0,1-1.42-1.429A1.445,1.445,0,0,1,5.8,25.467,1.427,1.427,0,0,1,7.21,26.906a1.405,1.405,0,0,1-1.435,1.4m.016-3.685a2.273,2.273,0,1,0,2.262,2.3,2.254,2.254,0,0,0-2.262-2.3M5.775,28.31a1.425,1.425,0,0,1-1.42-1.429A1.445,1.445,0,0,1,5.8,25.467,1.427,1.427,0,0,1,7.21,26.906a1.405,1.405,0,0,1-1.435,1.4m23.139-4.2a4.117,4.117,0,0,0-3.142-3.46,14.869,14.869,0,0,0-2.322-.087H21.435c-.5,0-.694.117-.686.423.008.29.2.4.67.406h.262c1.086,0,2.172-.014,3.258.006a3.039,3.039,0,0,1,2.5,1.289,2.953,2.953,0,0,1,.641,1.647c.013.268.142.466.441.448.313-.02.416-.234.4-.521,0-.05,0-.1-.008-.15m0,0a4.117,4.117,0,0,0-3.142-3.46,14.869,14.869,0,0,0-2.322-.087H21.435c-.5,0-.694.117-.686.423.008.29.2.4.67.406h.262c1.086,0,2.172-.014,3.258.006a3.039,3.039,0,0,1,2.5,1.289,2.953,2.953,0,0,1,.641,1.647c.013.268.142.466.441.448.313-.02.416-.234.4-.521,0-.05,0-.1-.008-.15m-23.123.516a2.273,2.273,0,1,0,2.262,2.3,2.254,2.254,0,0,0-2.262-2.3M5.775,28.31a1.425,1.425,0,0,1-1.42-1.429A1.445,1.445,0,0,1,5.8,25.467,1.427,1.427,0,0,1,7.21,26.906a1.405,1.405,0,0,1-1.435,1.4m.016-3.685a2.273,2.273,0,1,0,2.262,2.3,2.254,2.254,0,0,0-2.262-2.3M5.775,28.31a1.425,1.425,0,0,1-1.42-1.429A1.445,1.445,0,0,1,5.8,25.467,1.427,1.427,0,0,1,7.21,26.906a1.405,1.405,0,0,1-1.435,1.4m23.139-4.2a4.117,4.117,0,0,0-3.142-3.46,14.869,14.869,0,0,0-2.322-.087H21.435c-.5,0-.694.117-.686.423.008.29.2.4.67.406h.262c1.086,0,2.172-.014,3.258.006a3.039,3.039,0,0,1,2.5,1.289,2.953,2.953,0,0,1,.641,1.647c.013.268.142.466.441.448.313-.02.416-.234.4-.521,0-.05,0-.1-.008-.15m0,0a4.117,4.117,0,0,0-3.142-3.46,14.869,14.869,0,0,0-2.322-.087H21.435c-.5,0-.694.117-.686.423.008.29.2.4.67.406h.262c1.086,0,2.172-.014,3.258.006a3.039,3.039,0,0,1,2.5,1.289,2.953,2.953,0,0,1,.641,1.647c.013.268.142.466.441.448.313-.02.416-.234.4-.521,0-.05,0-.1-.008-.15m-23.123.516a2.273,2.273,0,1,0,2.262,2.3,2.254,2.254,0,0,0-2.262-2.3M5.775,28.31a1.425,1.425,0,0,1-1.42-1.429A1.445,1.445,0,0,1,5.8,25.467,1.427,1.427,0,0,1,7.21,26.906a1.405,1.405,0,0,1-1.435,1.4M31.5,8.628c0-.511-.122-.625-.651-.626-.686,0-1.373,0-2.06,0-1.761,0-3.521,0-5.282,0-.12,0-.3.081-.349-.115a2.668,2.668,0,0,0-1.416-1.731A3.443,3.443,0,0,0,21.965.869a3.4,3.4,0,0,0-4.976.465,3.263,3.263,0,0,0-.644,2.681A3.465,3.465,0,0,0,18.62,6.662c-.159.088-.278.154-.4.218q-2.987,1.594-5.975,3.184a1.893,1.893,0,0,0-.986,1.074c-.077.23-.209.269-.416.259a3.046,3.046,0,0,0-2.5.857,2.5,2.5,0,0,0-1.079-1.43,3.659,3.659,0,0,0-2.186-.3.352.352,0,0,0-.341.381q-.009,1.891,0,3.783a.364.364,0,0,0,.361.4,3.552,3.552,0,0,0,2.214-.341c.218-.15.243-.041.242.151a11.361,11.361,0,0,0,.01,1.534,3.334,3.334,0,0,1-.973,2.918.738.738,0,0,1-.525.281,7.007,7.007,0,0,0-4.089,1.458A6.1,6.1,0,0,0,.065,23.633c-.167.422,0,.67.429.681.271.007.542,0,.809,0,.027.142-.051.218-.093.3a5.11,5.11,0,1,0,9.641,2.947c.037-.314.136-.381.43-.38,2.373.011,4.744.005,7.117.007a1.8,1.8,0,0,1,.807.048c.211.119.124.478.182.728a5.109,5.109,0,0,0,10.021-.135c.132-.64.132-.64.765-.642s.731-.073.758-.727a14.491,14.491,0,0,0-.285-3.5,8.249,8.249,0,0,0-2.57-4.828c-.021-.019-.021-.062-.036-.114.967,0,1.914,0,2.862,0,.49,0,.6-.1.6-.592q0-4.4,0-8.8M5.845,14.273c-.235,0-.3-.083-.292-.305.014-.4,0-.8,0-1.2s.007-.774,0-1.161c-.005-.186.044-.258.248-.268A1.492,1.492,0,0,1,7.482,12.8a1.516,1.516,0,0,1-1.638,1.478M17.13,3.379a2.568,2.568,0,0,1,5.135.03,2.568,2.568,0,1,1-5.135-.03m-4.644,7.526c.427-.255.874-.478,1.314-.712Q16.77,8.61,19.741,7.03a1.728,1.728,0,0,1,2.561.94,2.547,2.547,0,0,1,.082.778q0,1.965,0,3.932c0,1.36-.009,2.721.007,4.082,0,.33-.07.445-.428.442-2.035-.019-4.069-.01-6.1-.009-.561,0-.644.084-.644.654,0,1.761-.007,3.52.005,5.281,0,.277-.07.378-.356.36-.373-.023-.748-.013-1.123,0-.191.005-.264-.058-.264-.255.006-2.234,0-4.47.012-6.7a1.171,1.171,0,0,1,1.2-1.135c1.2-.009,2.4,0,3.595,0,.573,0,.675-.1.676-.673,0-1.161.013-2.323-.009-3.483a.534.534,0,0,1,.353-.565c.656-.331,1.3-.683,1.949-1.033.33-.179.445-.429.293-.655-.189-.281-.437-.222-.691-.087q-3.549,1.89-7.1,3.778a1.436,1.436,0,0,1-.778.227A1.092,1.092,0,0,1,12,12.1a1.054,1.054,0,0,1,.483-1.2m5.638,12.281c0,.233-.086.3-.307.3-.487-.012-.974-.014-1.46,0-.238.007-.326-.059-.32-.313.016-.81.006-1.622.006-2.433s.012-1.6-.006-2.4c-.007-.271.083-.336.339-.326.486.019.973.012,1.459,0,.2,0,.291.04.29.265q-.011,2.452,0,4.9m-7.2-10.942c.25-.044.272.139.34.3a1.921,1.921,0,0,0,2.747.943q1.89-.984,3.761-2c.266-.144.378-.171.368.2-.021.822-.018,1.647,0,2.47.006.289-.071.39-.374.384-.947-.018-1.9-.009-2.844-.006a2.117,2.117,0,0,0-2.3,2.309q0,2.921,0,5.84v.391l-.1.02a16.616,16.616,0,0,1-1.685-3.541,4.474,4.474,0,0,1-.066-.894q0-3.014,0-6.027c0-.132-.114-.339.153-.387m-9.8,11.177c-.053-.108.063-.2.122-.3a5.607,5.607,0,0,1,4-2.554c1.073-.173,1.077-.15,1.626.805.349.6.692,1.213,1.048,1.813.129.218.111.3-.165.292-1.073-.01-2.146,0-3.219,0-1.037,0-2.072,0-3.108,0-.1,0-.249.06-.305-.055m8.831,4.4A4.269,4.269,0,1,1,2.2,24.574a.494.494,0,0,1,.483-.264c.936.014,1.872.006,2.808.006.91,0,1.822.011,2.732-.007a.509.509,0,0,1,.524.31,18.768,18.768,0,0,0,.995,1.713,1.737,1.737,0,0,1,.218,1.487m18.659-.349a4.274,4.274,0,0,1-8.441.157c-.075-.413-.049-.443.377-.445.2,0,.4,0,.6,0,.6-.1,1-.007,1.232.706a2.079,2.079,0,0,0,2.105,1.269,2.2,2.2,0,0,0,2.042-1.6.44.44,0,0,1,.539-.385c.436.022.873.015,1.31,0,.23-.007.265.081.236.29m-5.4-.288c.4.005.8,0,1.195,0,.362,0,.723.009,1.084,0,.225-.008.292.057.205.278a1.432,1.432,0,0,1-2.636-.052c-.057-.168-.026-.226.152-.224m6.071-5.823a12.638,12.638,0,0,1,.8,4.728c0,.31-.182.26-.365.26H20.353q-4.645,0-9.289.005a.522.522,0,0,1-.531-.3Q8.909,23.194,7.248,20.35c-.129-.222-.14-.383.041-.556A3.838,3.838,0,0,0,8.406,16.4,17.677,17.677,0,0,1,8.4,14.155a1.892,1.892,0,0,1,1.121-1.726c.355-.18.395-.15.395.237,0,1.935.012,3.871,0,5.806a5.821,5.821,0,0,0,.768,3c.465.811.912,1.633,1.353,2.458a.652.652,0,0,0,.654.386c1.885-.011,3.771-.005,5.656-.006.5,0,.621-.115.621-.611,0-1.774.008-3.547-.006-5.319,0-.293.075-.373.371-.372q3.316.02,6.63,0a1.408,1.408,0,0,1,.71.182,5.859,5.859,0,0,1,2.619,3.161m1.38-8.338c0,1.273-.008,2.545.006,3.818,0,.278-.071.359-.354.357q-3.368-.017-6.737,0c-.279,0-.357-.074-.356-.355q.015-3.819,0-7.637c0-.28.075-.356.355-.354q3.368.017,6.737,0c.277,0,.359.069.356.353-.016,1.272-.007,2.545-.007,3.818m-4.894,7.628a14.869,14.869,0,0,0-2.322-.087H21.435c-.5,0-.694.117-.686.423.008.29.2.4.67.406h.262c1.086,0,2.172-.014,3.258.006a3.039,3.039,0,0,1,2.5,1.289,2.953,2.953,0,0,1,.641,1.647c.013.268.142.466.441.448.313-.02.416-.234.4-.521,0-.05,0-.1-.008-.15a4.117,4.117,0,0,0-3.142-3.46M5.791,24.625a2.273,2.273,0,1,0,2.262,2.3,2.254,2.254,0,0,0-2.262-2.3M5.775,28.31a1.425,1.425,0,0,1-1.42-1.429A1.445,1.445,0,0,1,5.8,25.467,1.427,1.427,0,0,1,7.21,26.906a1.405,1.405,0,0,1-1.435,1.4m.016-3.685a2.273,2.273,0,1,0,2.262,2.3,2.254,2.254,0,0,0-2.262-2.3M5.775,28.31a1.425,1.425,0,0,1-1.42-1.429A1.445,1.445,0,0,1,5.8,25.467,1.427,1.427,0,0,1,7.21,26.906a1.405,1.405,0,0,1-1.435,1.4m23.139-4.2a4.117,4.117,0,0,0-3.142-3.46,14.869,14.869,0,0,0-2.322-.087H21.435c-.5,0-.694.117-.686.423.008.29.2.4.67.406h.262c1.086,0,2.172-.014,3.258.006a3.039,3.039,0,0,1,2.5,1.289,2.953,2.953,0,0,1,.641,1.647c.013.268.142.466.441.448.313-.02.416-.234.4-.521,0-.05,0-.1-.008-.15m0,0a4.117,4.117,0,0,0-3.142-3.46,14.869,14.869,0,0,0-2.322-.087H21.435c-.5,0-.694.117-.686.423.008.29.2.4.67.406h.262c1.086,0,2.172-.014,3.258.006a3.039,3.039,0,0,1,2.5,1.289,2.953,2.953,0,0,1,.641,1.647c.013.268.142.466.441.448.313-.02.416-.234.4-.521,0-.05,0-.1-.008-.15m-23.123.516a2.273,2.273,0,1,0,2.262,2.3,2.254,2.254,0,0,0-2.262-2.3M5.775,28.31a1.425,1.425,0,0,1-1.42-1.429A1.445,1.445,0,0,1,5.8,25.467,1.427,1.427,0,0,1,7.21,26.906a1.405,1.405,0,0,1-1.435,1.4m.016-3.685a2.273,2.273,0,1,0,2.262,2.3,2.254,2.254,0,0,0-2.262-2.3M5.775,28.31a1.425,1.425,0,0,1-1.42-1.429A1.445,1.445,0,0,1,5.8,25.467,1.427,1.427,0,0,1,7.21,26.906a1.405,1.405,0,0,1-1.435,1.4m23.139-4.2a4.117,4.117,0,0,0-3.142-3.46,14.869,14.869,0,0,0-2.322-.087H21.435c-.5,0-.694.117-.686.423.008.29.2.4.67.406h.262c1.086,0,2.172-.014,3.258.006a3.039,3.039,0,0,1,2.5,1.289,2.953,2.953,0,0,1,.641,1.647c.013.268.142.466.441.448.313-.02.416-.234.4-.521,0-.05,0-.1-.008-.15m0,0a4.117,4.117,0,0,0-3.142-3.46,14.869,14.869,0,0,0-2.322-.087H21.435c-.5,0-.694.117-.686.423.008.29.2.4.67.406h.262c1.086,0,2.172-.014,3.258.006a3.039,3.039,0,0,1,2.5,1.289,2.953,2.953,0,0,1,.641,1.647c.013.268.142.466.441.448.313-.02.416-.234.4-.521,0-.05,0-.1-.008-.15m-23.123.516a2.273,2.273,0,1,0,2.262,2.3,2.254,2.254,0,0,0-2.262-2.3M5.775,28.31a1.425,1.425,0,0,1-1.42-1.429A1.445,1.445,0,0,1,5.8,25.467,1.427,1.427,0,0,1,7.21,26.906a1.405,1.405,0,0,1-1.435,1.4m23.139-4.2a4.117,4.117,0,0,0-3.142-3.46,14.869,14.869,0,0,0-2.322-.087H21.435c-.5,0-.694.117-.686.423.008.29.2.4.67.406h.262c1.086,0,2.172-.014,3.258.006a3.039,3.039,0,0,1,2.5,1.289,2.953,2.953,0,0,1,.641,1.647c.013.268.142.466.441.448.313-.02.416-.234.4-.521,0-.05,0-.1-.008-.15m0,0a4.117,4.117,0,0,0-3.142-3.46,14.869,14.869,0,0,0-2.322-.087H21.435c-.5,0-.694.117-.686.423.008.29.2.4.67.406h.262c1.086,0,2.172-.014,3.258.006a3.039,3.039,0,0,1,2.5,1.289,2.953,2.953,0,0,1,.641,1.647c.013.268.142.466.441.448.313-.02.416-.234.4-.521,0-.05,0-.1-.008-.15" transform="translate(-0.001 0)" fill="#fff"/>
  <path id="Path_3482" data-name="Path 3482" d="M215.334,208.951c.012.286-.09.5-.4.521-.3.018-.428-.179-.441-.448a2.953,2.953,0,0,0-.641-1.647,3.039,3.039,0,0,0-2.5-1.289c-1.086-.02-2.172-.005-3.258-.006h-.262c-.474,0-.662-.115-.67-.406-.008-.305.181-.423.686-.423h2.015a14.868,14.868,0,0,1,2.322.087,4.117,4.117,0,0,1,3.142,3.46c.006.05.006.1.008.15" transform="translate(-186.412 -184.692)" fill="#fff"/>
  <path id="Path_3483" data-name="Path 3483" d="M37.458,245.868a2.273,2.273,0,1,0,2.262,2.3,2.254,2.254,0,0,0-2.262-2.3m-.016,3.685a1.425,1.425,0,0,1-1.42-1.429,1.446,1.446,0,0,1,1.443-1.414,1.427,1.427,0,0,1,1.412,1.439,1.405,1.405,0,0,1-1.435,1.4" transform="translate(-31.668 -221.243)" fill="#fff"/>
  <path id="Path_3484" data-name="Path 3484" d="M215.334,208.951c.012.286-.09.5-.4.521-.3.018-.428-.179-.441-.448a2.953,2.953,0,0,0-.641-1.647,3.039,3.039,0,0,0-2.5-1.289c-1.086-.02-2.172-.005-3.258-.006h-.262c-.474,0-.662-.115-.67-.406-.008-.305.181-.423.686-.423h2.015a14.868,14.868,0,0,1,2.322.087,4.117,4.117,0,0,1,3.142,3.46c.006.05.006.1.008.15" transform="translate(-186.412 -184.692)" fill="#fff"/>
  <path id="Path_3485" data-name="Path 3485" d="M37.458,245.868a2.273,2.273,0,1,0,2.262,2.3,2.254,2.254,0,0,0-2.262-2.3m-.016,3.685a1.425,1.425,0,0,1-1.42-1.429,1.446,1.446,0,0,1,1.443-1.414,1.427,1.427,0,0,1,1.412,1.439,1.405,1.405,0,0,1-1.435,1.4" transform="translate(-31.668 -221.243)" fill="#fff"/>
</svg>
